<mxfile host="Electron" modified="2022-08-03T20:56:22.349Z" agent="5.0 (Windows NT 10.0; Win64; x64) AppleWebKit/537.36 (KHTML, like Gecko) draw.io/19.0.3 Chrome/102.0.5005.63 Electron/19.0.3 Safari/537.36" etag="op4wWGR_nTVdbDwln20n" compressed="false" version="19.0.3" type="device">
  <diagram name="Latest" id="evL5fLv8r15yFEJPhG0Y">
    <mxGraphModel dx="1222" dy="2067" grid="1" gridSize="10" guides="1" tooltips="1" connect="1" arrows="1" fold="1" page="1" pageScale="1" pageWidth="1100" pageHeight="850" math="0" shadow="0">
      <root>
        <mxCell id="lbw5UqFOsXxO_sbxoh2b-0" />
        <mxCell id="lbw5UqFOsXxO_sbxoh2b-1" parent="lbw5UqFOsXxO_sbxoh2b-0" />
        <mxCell id="lbw5UqFOsXxO_sbxoh2b-2" value="profile Core" style="shape=umlFrame;whiteSpace=wrap;html=1;width=100;height=31;" parent="lbw5UqFOsXxO_sbxoh2b-1" vertex="1">
          <mxGeometry x="20" y="-830" width="1130" height="610" as="geometry" />
        </mxCell>
        <object label="Element" description="static representation of a part of the universe of discourse that may be identified and characterised by its behaviour and attribute." description_source="ISO 15531-1:2004" id="lbw5UqFOsXxO_sbxoh2b-71">
          <mxCell style="swimlane;fontStyle=3;childLayout=stackLayout;horizontal=1;startSize=26;fillColor=#6a00ff;horizontalStack=0;resizeParent=1;resizeParentMax=0;resizeLast=0;collapsible=1;marginBottom=0;strokeColor=#3700CC;fontColor=#ffffff;" parent="lbw5UqFOsXxO_sbxoh2b-1" vertex="1">
            <mxGeometry x="400" y="-755" width="260" height="286" as="geometry" />
          </mxCell>
        </object>
        <mxCell id="lbw5UqFOsXxO_sbxoh2b-72" value="+ SPDXID: IRI" style="text;strokeColor=none;fillColor=none;align=left;verticalAlign=top;spacingLeft=4;spacingRight=4;overflow=hidden;rotatable=0;points=[[0,0.5],[1,0.5]];portConstraint=eastwest;" parent="lbw5UqFOsXxO_sbxoh2b-71" vertex="1">
          <mxGeometry y="26" width="260" height="26" as="geometry" />
        </mxCell>
        <mxCell id="lbw5UqFOsXxO_sbxoh2b-73" value="+ name: String[0..1]" style="text;strokeColor=none;fillColor=none;align=left;verticalAlign=top;spacingLeft=4;spacingRight=4;overflow=hidden;rotatable=0;points=[[0,0.5],[1,0.5]];portConstraint=eastwest;" parent="lbw5UqFOsXxO_sbxoh2b-71" vertex="1">
          <mxGeometry y="52" width="260" height="26" as="geometry" />
        </mxCell>
        <mxCell id="6XS0wSoGIkXF6f-__7vX-0" value="+ summary: String[0..1]" style="text;strokeColor=none;fillColor=none;align=left;verticalAlign=top;spacingLeft=4;spacingRight=4;overflow=hidden;rotatable=0;points=[[0,0.5],[1,0.5]];portConstraint=eastwest;" parent="lbw5UqFOsXxO_sbxoh2b-71" vertex="1">
          <mxGeometry y="78" width="260" height="26" as="geometry" />
        </mxCell>
        <mxCell id="6XS0wSoGIkXF6f-__7vX-1" value="+ description: String[0..1]" style="text;strokeColor=none;fillColor=none;align=left;verticalAlign=top;spacingLeft=4;spacingRight=4;overflow=hidden;rotatable=0;points=[[0,0.5],[1,0.5]];portConstraint=eastwest;" parent="lbw5UqFOsXxO_sbxoh2b-71" vertex="1">
          <mxGeometry y="104" width="260" height="26" as="geometry" />
        </mxCell>
        <mxCell id="lbw5UqFOsXxO_sbxoh2b-74" value="+ comment: String[0..1]" style="text;strokeColor=none;fillColor=none;align=left;verticalAlign=top;spacingLeft=4;spacingRight=4;overflow=hidden;rotatable=0;points=[[0,0.5],[1,0.5]];portConstraint=eastwest;" parent="lbw5UqFOsXxO_sbxoh2b-71" vertex="1">
          <mxGeometry y="130" width="260" height="26" as="geometry" />
        </mxCell>
        <mxCell id="6XS0wSoGIkXF6f-__7vX-14" value="+ creationInfo: CreationInformation" style="text;strokeColor=none;fillColor=none;align=left;verticalAlign=top;spacingLeft=4;spacingRight=4;overflow=hidden;rotatable=0;points=[[0,0.5],[1,0.5]];portConstraint=eastwest;" parent="lbw5UqFOsXxO_sbxoh2b-71" vertex="1">
          <mxGeometry y="156" width="260" height="26" as="geometry" />
        </mxCell>
        <mxCell id="oqmSebOzuupvJpAGgmBN-0" value="+ verifiedUsing: IntegrityMethod[0..*]" style="text;strokeColor=none;fillColor=none;align=left;verticalAlign=top;spacingLeft=4;spacingRight=4;overflow=hidden;rotatable=0;points=[[0,0.5],[1,0.5]];portConstraint=eastwest;" parent="lbw5UqFOsXxO_sbxoh2b-71" vertex="1">
          <mxGeometry y="182" width="260" height="26" as="geometry" />
        </mxCell>
        <mxCell id="oqmSebOzuupvJpAGgmBN-2" value="+ externalReferences: ExternalReference[0..*]" style="text;strokeColor=none;fillColor=none;align=left;verticalAlign=top;spacingLeft=4;spacingRight=4;overflow=hidden;rotatable=0;points=[[0,0.5],[1,0.5]];portConstraint=eastwest;" parent="lbw5UqFOsXxO_sbxoh2b-71" vertex="1">
          <mxGeometry y="208" width="260" height="26" as="geometry" />
        </mxCell>
        <mxCell id="HIxk6s3NbhlS_bf0KkwK-1" value="+ externalIdentifiers: ExternalIdentifier[0..*]" style="text;strokeColor=none;fillColor=none;align=left;verticalAlign=top;spacingLeft=4;spacingRight=4;overflow=hidden;rotatable=0;points=[[0,0.5],[1,0.5]];portConstraint=eastwest;" parent="lbw5UqFOsXxO_sbxoh2b-71" vertex="1">
          <mxGeometry y="234" width="260" height="26" as="geometry" />
        </mxCell>
        <mxCell id="rxyFEzK3qIhznJNs5aLL-1" value="+ extensions: Map&lt;IRI, any&gt;[0..1]" style="text;strokeColor=none;fillColor=none;align=left;verticalAlign=top;spacingLeft=4;spacingRight=4;overflow=hidden;rotatable=0;points=[[0,0.5],[1,0.5]];portConstraint=eastwest;" parent="lbw5UqFOsXxO_sbxoh2b-71" vertex="1">
          <mxGeometry y="260" width="260" height="26" as="geometry" />
        </mxCell>
        <mxCell id="lbw5UqFOsXxO_sbxoh2b-52" value="Artifact" style="swimlane;fontStyle=3;childLayout=stackLayout;horizontal=1;startSize=26;fillColor=#d5e8d4;horizontalStack=0;resizeParent=1;resizeParentMax=0;resizeLast=0;collapsible=1;marginBottom=0;strokeColor=#82b366;" parent="lbw5UqFOsXxO_sbxoh2b-1" vertex="1">
          <mxGeometry x="449" y="-320" width="167" height="52" as="geometry" />
        </mxCell>
        <mxCell id="oqmSebOzuupvJpAGgmBN-24" value="" style="group" parent="lbw5UqFOsXxO_sbxoh2b-1" vertex="1" connectable="0">
          <mxGeometry x="1160" y="-830" width="690" height="1660" as="geometry" />
        </mxCell>
        <mxCell id="vpzv6-2MOStUy2rxt9Jq-2" value="Data Types" style="shape=umlFrame;whiteSpace=wrap;html=1;width=120;height=30;" parent="oqmSebOzuupvJpAGgmBN-24" vertex="1">
          <mxGeometry width="690" height="1660" as="geometry" />
        </mxCell>
        <mxCell id="vpzv6-2MOStUy2rxt9Jq-29" value="These types have value type/struct semantics - equality is determined by comparing values and they MUST NOT by referenced by name across documents. Serialization formats MAY enable de-duplication within a single document." style="text;align=left;fontStyle=1;verticalAlign=top;spacingLeft=3;spacingRight=3;strokeColor=none;rotatable=0;points=[[0,0.5],[1,0.5]];portConstraint=eastwest;whiteSpace=wrap;" parent="oqmSebOzuupvJpAGgmBN-24" vertex="1">
          <mxGeometry x="125" width="550" height="84.21535714285714" as="geometry" />
        </mxCell>
        <mxCell id="ufostXa2ktRmBCj3IWHJ-17" value="ExternalMap" style="swimlane;fontStyle=5;childLayout=stackLayout;horizontal=1;startSize=26;fillColor=none;horizontalStack=0;resizeParent=1;resizeParentMax=0;resizeLast=0;collapsible=1;marginBottom=0;" parent="oqmSebOzuupvJpAGgmBN-24" vertex="1">
          <mxGeometry x="20" y="387.72857142857146" width="240" height="130" as="geometry" />
        </mxCell>
        <mxCell id="ufostXa2ktRmBCj3IWHJ-18" value="+ externalId: IRI" style="text;strokeColor=none;fillColor=none;align=left;verticalAlign=top;spacingLeft=4;spacingRight=4;overflow=hidden;rotatable=0;points=[[0,0.5],[1,0.5]];portConstraint=eastwest;" parent="ufostXa2ktRmBCj3IWHJ-17" vertex="1">
          <mxGeometry y="26" width="240" height="26" as="geometry" />
        </mxCell>
        <mxCell id="ufostXa2ktRmBCj3IWHJ-19" value="+ locationHint: URL[0..1]" style="text;strokeColor=none;fillColor=none;align=left;verticalAlign=top;spacingLeft=4;spacingRight=4;overflow=hidden;rotatable=0;points=[[0,0.5],[1,0.5]];portConstraint=eastwest;" parent="ufostXa2ktRmBCj3IWHJ-17" vertex="1">
          <mxGeometry y="52" width="240" height="26" as="geometry" />
        </mxCell>
        <mxCell id="oqmSebOzuupvJpAGgmBN-1" value="+ verifiedUsing: IntegrityMethod[0..*]" style="text;strokeColor=none;fillColor=none;align=left;verticalAlign=top;spacingLeft=4;spacingRight=4;overflow=hidden;rotatable=0;points=[[0,0.5],[1,0.5]];portConstraint=eastwest;" parent="ufostXa2ktRmBCj3IWHJ-17" vertex="1">
          <mxGeometry y="78" width="240" height="26" as="geometry" />
        </mxCell>
        <mxCell id="oqmSebOzuupvJpAGgmBN-13" value="+ definingDocument: DocumentRef[0..1]" style="text;strokeColor=none;fillColor=none;align=left;verticalAlign=top;spacingLeft=4;spacingRight=4;overflow=hidden;rotatable=0;points=[[0,0.5],[1,0.5]];portConstraint=eastwest;" parent="ufostXa2ktRmBCj3IWHJ-17" vertex="1">
          <mxGeometry y="104" width="240" height="26" as="geometry" />
        </mxCell>
        <mxCell id="oqmSebOzuupvJpAGgmBN-8" value="NamespaceMap" style="swimlane;fontStyle=5;childLayout=stackLayout;horizontal=1;startSize=26;fillColor=none;horizontalStack=0;resizeParent=1;resizeParentMax=0;resizeLast=0;collapsible=1;marginBottom=0;" parent="oqmSebOzuupvJpAGgmBN-24" vertex="1">
          <mxGeometry x="20" y="540.0042857142856" width="240" height="78" as="geometry" />
        </mxCell>
        <mxCell id="oqmSebOzuupvJpAGgmBN-9" value="+ prefix: String" style="text;strokeColor=none;fillColor=none;align=left;verticalAlign=top;spacingLeft=4;spacingRight=4;overflow=hidden;rotatable=0;points=[[0,0.5],[1,0.5]];portConstraint=eastwest;" parent="oqmSebOzuupvJpAGgmBN-8" vertex="1">
          <mxGeometry y="26" width="240" height="26" as="geometry" />
        </mxCell>
        <mxCell id="oqmSebOzuupvJpAGgmBN-10" value="+ namespace: IRI" style="text;strokeColor=none;fillColor=none;align=left;verticalAlign=top;spacingLeft=4;spacingRight=4;overflow=hidden;rotatable=0;points=[[0,0.5],[1,0.5]];portConstraint=eastwest;" parent="oqmSebOzuupvJpAGgmBN-8" vertex="1">
          <mxGeometry y="52" width="240" height="26" as="geometry" />
        </mxCell>
        <mxCell id="pTpt2WmfJlZEHMiVlLGf-4" value="&lt;p style=&quot;margin: 0px ; margin-top: 4px ; text-align: center ; text-decoration: underline&quot;&gt;&lt;b&gt;ExternalReferenceType: String&lt;/b&gt;&lt;/p&gt;&lt;hr&gt;&lt;p style=&quot;margin: 0px ; margin-left: 8px&quot;&gt;TBD&lt;/p&gt;" style="verticalAlign=top;align=left;overflow=fill;fontSize=12;fontFamily=Helvetica;html=1;" parent="oqmSebOzuupvJpAGgmBN-24" vertex="1">
          <mxGeometry x="490" y="970.0028571428571" width="180" height="88.92857142857143" as="geometry" />
        </mxCell>
        <mxCell id="yofOrjFWGa2IRKy9s2uS-0" value="&lt;p style=&quot;margin: 0px ; margin-top: 4px ; text-align: center ; text-decoration: underline&quot;&gt;&lt;b&gt;AnnotationType: String&lt;/b&gt;&lt;/p&gt;&lt;hr&gt;&lt;p style=&quot;margin: 0px ; margin-left: 8px&quot;&gt;REVIEW&lt;/p&gt;&lt;p style=&quot;margin: 0px ; margin-left: 8px&quot;&gt;OTHER&lt;/p&gt;" style="verticalAlign=top;align=left;overflow=fill;fontSize=12;fontFamily=Helvetica;html=1;" parent="oqmSebOzuupvJpAGgmBN-24" vertex="1">
          <mxGeometry x="490" y="1076.7171428571428" width="180" height="96.33928571428571" as="geometry" />
        </mxCell>
        <mxCell id="mEqIX3Hzy_XuduLJd2t0-0" value="&lt;p style=&quot;margin: 0px ; margin-top: 4px ; text-align: center ; text-decoration: underline&quot;&gt;&lt;b&gt;HashAlgorithm: String&lt;/b&gt;&lt;/p&gt;&lt;hr&gt;&lt;p style=&quot;margin: 0px ; margin-left: 8px&quot;&gt;SHA1&lt;/p&gt;&lt;p style=&quot;margin: 0px ; margin-left: 8px&quot;&gt;SHA224&lt;/p&gt;&lt;p style=&quot;margin: 0px ; margin-left: 8px&quot;&gt;SHA256 [default]&lt;/p&gt;&lt;p style=&quot;margin: 0px ; margin-left: 8px&quot;&gt;SHA384&lt;/p&gt;&lt;p style=&quot;margin: 0px ; margin-left: 8px&quot;&gt;SHA512&lt;/p&gt;&lt;p style=&quot;margin: 0px ; margin-left: 8px&quot;&gt;SHA3-224&lt;/p&gt;&lt;p style=&quot;margin: 0px ; margin-left: 8px&quot;&gt;SHA3-256&lt;/p&gt;&lt;p style=&quot;margin: 0px ; margin-left: 8px&quot;&gt;SHA3-384&lt;/p&gt;&lt;p style=&quot;margin: 0px ; margin-left: 8px&quot;&gt;SHA3-512&lt;/p&gt;&lt;p style=&quot;margin: 0px ; margin-left: 8px&quot;&gt;MD2&lt;/p&gt;&lt;p style=&quot;margin: 0px ; margin-left: 8px&quot;&gt;MD4&lt;/p&gt;&lt;p style=&quot;margin: 0px ; margin-left: 8px&quot;&gt;MD5&lt;/p&gt;&lt;p style=&quot;margin: 0px ; margin-left: 8px&quot;&gt;MD6&lt;/p&gt;&lt;p style=&quot;margin: 0px ; margin-left: 8px&quot;&gt;SPDX-PVC-SHA1&lt;/p&gt;&lt;p style=&quot;margin: 0px ; margin-left: 8px&quot;&gt;SPDX-PVC-SHA256&lt;/p&gt;&lt;p style=&quot;margin: 0px ; margin-left: 8px&quot;&gt;BLAKE2b-256&lt;/p&gt;&lt;p style=&quot;margin: 0px ; margin-left: 8px&quot;&gt;BLAKE2b-384&lt;/p&gt;&lt;p style=&quot;margin: 0px ; margin-left: 8px&quot;&gt;BLAKE2b-512&lt;/p&gt;&lt;p style=&quot;margin: 0px ; margin-left: 8px&quot;&gt;BLAKE3&lt;/p&gt;" style="verticalAlign=top;align=left;overflow=fill;fontSize=12;fontFamily=Helvetica;html=1;" parent="oqmSebOzuupvJpAGgmBN-24" vertex="1">
          <mxGeometry x="20" y="970.0028571428571" width="165" height="367.57142857142856" as="geometry" />
        </mxCell>
        <mxCell id="mEqIX3Hzy_XuduLJd2t0-3" value="&lt;p style=&quot;margin: 0px ; margin-top: 4px ; text-align: center ; text-decoration: underline&quot;&gt;&lt;b&gt;SoftwarePurpose: String&lt;/b&gt;&lt;/p&gt;&lt;hr&gt;&lt;p style=&quot;margin: 0px 0px 0px 8px&quot;&gt;APPLICATION&lt;/p&gt;&lt;p style=&quot;margin: 0px 0px 0px 8px&quot;&gt;FRAMEWORK&lt;/p&gt;&lt;p style=&quot;margin: 0px 0px 0px 8px&quot;&gt;LIBRARY&lt;/p&gt;&lt;p style=&quot;margin: 0px 0px 0px 8px&quot;&gt;CONTAINER&lt;/p&gt;&lt;p style=&quot;margin: 0px 0px 0px 8px&quot;&gt;OPERATING-SYSTEM&lt;/p&gt;&lt;p style=&quot;margin: 0px 0px 0px 8px&quot;&gt;DEVICE&lt;/p&gt;&lt;p style=&quot;margin: 0px 0px 0px 8px&quot;&gt;FIRMWARE&lt;/p&gt;&lt;p style=&quot;margin: 0px 0px 0px 8px&quot;&gt;SOURCE&lt;/p&gt;&lt;p style=&quot;margin: 0px 0px 0px 8px&quot;&gt;PATCH&lt;br&gt;&lt;/p&gt;&lt;p style=&quot;margin: 0px 0px 0px 8px&quot;&gt;ARCHIVE&lt;/p&gt;&lt;p style=&quot;margin: 0px 0px 0px 8px&quot;&gt;CONFIGURATION&lt;/p&gt;&lt;p style=&quot;margin: 0px 0px 0px 8px&quot;&gt;DATA&lt;/p&gt;&lt;p style=&quot;margin: 0px 0px 0px 8px&quot;&gt;DOCUMENTATION&lt;br&gt;&lt;/p&gt;&lt;p style=&quot;margin: 0px 0px 0px 8px&quot;&gt;EXECUTABLE&lt;/p&gt;&lt;p style=&quot;margin: 0px 0px 0px 8px&quot;&gt;MODULE&lt;br&gt;&lt;/p&gt;&lt;p style=&quot;margin: 0px 0px 0px 8px&quot;&gt;BOM&lt;/p&gt;&lt;p style=&quot;margin: 0px 0px 0px 8px&quot;&gt;OTHER&lt;/p&gt;" style="verticalAlign=top;align=left;overflow=fill;fontSize=12;fontFamily=Helvetica;html=1;" parent="oqmSebOzuupvJpAGgmBN-24" vertex="1">
          <mxGeometry x="20" y="1357.7299999999998" width="165" height="281.13" as="geometry" />
        </mxCell>
        <mxCell id="mEqIX3Hzy_XuduLJd2t0-2" value="&lt;p style=&quot;margin: 0px ; margin-top: 4px ; text-align: center ; text-decoration: underline&quot;&gt;&lt;b&gt;RelationshipType: String&lt;/b&gt;&lt;/p&gt;&lt;hr&gt;&lt;p style=&quot;margin: 0px ; margin-left: 8px&quot;&gt;DESCRIBES&lt;/p&gt;&lt;p style=&quot;margin: 0px ; margin-left: 8px&quot;&gt;CONTAINS&lt;/p&gt;&lt;p style=&quot;margin: 0px ; margin-left: 8px&quot;&gt;DEPENDS_ON&lt;/p&gt;&lt;p style=&quot;margin: 0px ; margin-left: 8px&quot;&gt;GENERATES&lt;/p&gt;&lt;p style=&quot;margin: 0px ; margin-left: 8px&quot;&gt;&lt;br&gt;&lt;/p&gt;&lt;p style=&quot;margin: 0px ; margin-left: 8px&quot;&gt;ANCESTOR_OF&lt;/p&gt;&lt;p style=&quot;margin: 0px ; margin-left: 8px&quot;&gt;DESCENDANT_OF&lt;/p&gt;&lt;p style=&quot;margin: 0px ; margin-left: 8px&quot;&gt;VARIANT_OF&lt;/p&gt;&lt;p style=&quot;margin: 0px ; margin-left: 8px&quot;&gt;DISTRIBUTION_ARTIFACT&lt;/p&gt;&lt;p style=&quot;margin: 0px ; margin-left: 8px&quot;&gt;&lt;br&gt;&lt;/p&gt;&lt;p style=&quot;margin: 0px ; margin-left: 8px&quot;&gt;FILE_ADDED&lt;/p&gt;&lt;p style=&quot;margin: 0px ; margin-left: 8px&quot;&gt;FILE_DELETED&lt;/p&gt;&lt;p style=&quot;margin: 0px ; margin-left: 8px&quot;&gt;FILE_MODIFIED&lt;/p&gt;&lt;p style=&quot;margin: 0px ; margin-left: 8px&quot;&gt;&lt;br&gt;&lt;/p&gt;&lt;p style=&quot;margin: 0px ; margin-left: 8px&quot;&gt;... (more to be brought in from SPDX 2.x)&lt;/p&gt;&lt;p style=&quot;margin: 0px ; margin-left: 8px&quot;&gt;&lt;br&gt;&lt;/p&gt;&lt;p style=&quot;margin: 0px ; margin-left: 8px&quot;&gt;SUPPLIED_BY *new*&lt;/p&gt;&lt;p style=&quot;margin: 0px ; margin-left: 8px&quot;&gt;ALSO_KNOWN_AS *new*&lt;/p&gt;" style="verticalAlign=top;align=left;overflow=fill;fontSize=12;fontFamily=Helvetica;html=1;" parent="oqmSebOzuupvJpAGgmBN-24" vertex="1">
          <mxGeometry x="200.5" y="970.0028571428571" width="274.5" height="367.57142857142856" as="geometry" />
        </mxCell>
        <mxCell id="mEqIX3Hzy_XuduLJd2t0-1" value="&lt;p style=&quot;margin: 0px ; margin-top: 4px ; text-align: center ; text-decoration: underline&quot;&gt;&lt;b&gt;RelationshipCompleteness: String&lt;/b&gt;&lt;/p&gt;&lt;hr&gt;&lt;p style=&quot;margin: 0px ; margin-left: 8px&quot;&gt;&lt;span&gt;KNOWN [Default]&lt;/span&gt;&lt;br&gt;&lt;/p&gt;&lt;p style=&quot;margin: 0px ; margin-left: 8px&quot;&gt;INCOMPLETE&lt;/p&gt;&lt;p style=&quot;margin: 0px 0px 0px 8px&quot;&gt;UNKNOWN&lt;br&gt;&lt;/p&gt;&lt;div&gt;&lt;br&gt;&lt;/div&gt;" style="verticalAlign=top;align=left;overflow=fill;fontSize=12;fontFamily=Helvetica;html=1;" parent="oqmSebOzuupvJpAGgmBN-24" vertex="1">
          <mxGeometry x="200" y="1357.7314285714285" width="275" height="93.67142857142858" as="geometry" />
        </mxCell>
        <mxCell id="5FtSzHESpUjzpo75bhwH-0" value="Hash" style="swimlane;fontStyle=5;childLayout=stackLayout;horizontal=1;startSize=26;fillColor=none;horizontalStack=0;resizeParent=1;resizeParentMax=0;resizeLast=0;collapsible=1;marginBottom=0;" parent="oqmSebOzuupvJpAGgmBN-24" vertex="1">
          <mxGeometry x="20" y="201.57142857142858" width="165" height="78" as="geometry" />
        </mxCell>
        <mxCell id="5FtSzHESpUjzpo75bhwH-1" value="+ algorithm: HashAlgorithm" style="text;strokeColor=none;fillColor=none;align=left;verticalAlign=top;spacingLeft=4;spacingRight=4;overflow=hidden;rotatable=0;points=[[0,0.5],[1,0.5]];portConstraint=eastwest;" parent="5FtSzHESpUjzpo75bhwH-0" vertex="1">
          <mxGeometry y="26" width="165" height="26" as="geometry" />
        </mxCell>
        <mxCell id="5FtSzHESpUjzpo75bhwH-2" value="+ hashValue: Binary" style="text;strokeColor=none;fillColor=none;align=left;verticalAlign=top;spacingLeft=4;spacingRight=4;overflow=hidden;rotatable=0;points=[[0,0.5],[1,0.5]];portConstraint=eastwest;" parent="5FtSzHESpUjzpo75bhwH-0" vertex="1">
          <mxGeometry y="52" width="165" height="26" as="geometry" />
        </mxCell>
        <mxCell id="oqmSebOzuupvJpAGgmBN-3" value="ExternalReference" style="swimlane;fontStyle=7;childLayout=stackLayout;horizontal=1;startSize=26;fillColor=none;horizontalStack=0;resizeParent=1;resizeParentMax=0;resizeLast=0;collapsible=1;marginBottom=0;" parent="oqmSebOzuupvJpAGgmBN-24" vertex="1">
          <mxGeometry x="200" y="84.21142857142858" width="280" height="104" as="geometry" />
        </mxCell>
        <mxCell id="oqmSebOzuupvJpAGgmBN-4" value="+ externalReferenceType: ExternalReferenceType" style="text;strokeColor=none;fillColor=none;align=left;verticalAlign=top;spacingLeft=4;spacingRight=4;overflow=hidden;rotatable=0;points=[[0,0.5],[1,0.5]];portConstraint=eastwest;" parent="oqmSebOzuupvJpAGgmBN-3" vertex="1">
          <mxGeometry y="26" width="280" height="26" as="geometry" />
        </mxCell>
        <mxCell id="oqmSebOzuupvJpAGgmBN-5" value="+ locator: IRI" style="text;strokeColor=none;fillColor=none;align=left;verticalAlign=top;spacingLeft=4;spacingRight=4;overflow=hidden;rotatable=0;points=[[0,0.5],[1,0.5]];portConstraint=eastwest;" parent="oqmSebOzuupvJpAGgmBN-3" vertex="1">
          <mxGeometry y="52" width="280" height="26" as="geometry" />
        </mxCell>
        <mxCell id="oqmSebOzuupvJpAGgmBN-6" value="+ comments: String[0..1]" style="text;strokeColor=none;fillColor=none;align=left;verticalAlign=top;spacingLeft=4;spacingRight=4;overflow=hidden;rotatable=0;points=[[0,0.5],[1,0.5]];portConstraint=eastwest;" parent="oqmSebOzuupvJpAGgmBN-3" vertex="1">
          <mxGeometry y="78" width="280" height="26" as="geometry" />
        </mxCell>
        <object label="ExternalIdentifier" description="specified set of attributes (3.2.5) assigned to an entity (3.1.91) for the purpose of identification (3.1.117)" description_source="ISO 22300:2021" id="rxyFEzK3qIhznJNs5aLL-2">
          <mxCell style="swimlane;fontStyle=7;childLayout=stackLayout;horizontal=1;startSize=26;fillColor=none;horizontalStack=0;resizeParent=1;resizeParentMax=0;resizeLast=0;collapsible=1;marginBottom=0;" parent="oqmSebOzuupvJpAGgmBN-24" vertex="1">
            <mxGeometry x="200" y="201.57" width="280" height="104" as="geometry" />
          </mxCell>
        </object>
        <mxCell id="HIxk6s3NbhlS_bf0KkwK-11" value="+ externalIdentifierType: ExternalIdentifierType" style="text;strokeColor=none;fillColor=none;align=left;verticalAlign=top;spacingLeft=4;spacingRight=4;overflow=hidden;rotatable=0;points=[[0,0.5],[1,0.5]];portConstraint=eastwest;" parent="rxyFEzK3qIhznJNs5aLL-2" vertex="1">
          <mxGeometry y="26" width="280" height="26" as="geometry" />
        </mxCell>
        <mxCell id="HIxk6s3NbhlS_bf0KkwK-12" value="+ locator: IRI" style="text;strokeColor=none;fillColor=none;align=left;verticalAlign=top;spacingLeft=4;spacingRight=4;overflow=hidden;rotatable=0;points=[[0,0.5],[1,0.5]];portConstraint=eastwest;" parent="rxyFEzK3qIhznJNs5aLL-2" vertex="1">
          <mxGeometry y="52" width="280" height="26" as="geometry" />
        </mxCell>
        <mxCell id="HIxk6s3NbhlS_bf0KkwK-13" value="+ comments: String[0..1]" style="text;strokeColor=none;fillColor=none;align=left;verticalAlign=top;spacingLeft=4;spacingRight=4;overflow=hidden;rotatable=0;points=[[0,0.5],[1,0.5]];portConstraint=eastwest;" parent="rxyFEzK3qIhznJNs5aLL-2" vertex="1">
          <mxGeometry y="78" width="280" height="26" as="geometry" />
        </mxCell>
        <mxCell id="2s-bnx9j1tC9v176qzNB-11" value="SemVer: String" style="swimlane;fontStyle=5;childLayout=stackLayout;horizontal=1;startSize=26;fillColor=none;horizontalStack=0;resizeParent=1;resizeParentMax=0;resizeLast=0;collapsible=1;marginBottom=0;" parent="oqmSebOzuupvJpAGgmBN-24" vertex="1">
          <mxGeometry x="490" y="1192.9985714285713" width="180" height="61.57142857142857" as="geometry" />
        </mxCell>
        <mxCell id="2s-bnx9j1tC9v176qzNB-34" value="String constrained to SemVer 2.0.0 specification." style="text;html=1;strokeColor=none;fillColor=none;align=center;verticalAlign=middle;whiteSpace=wrap;rounded=0;" parent="2s-bnx9j1tC9v176qzNB-11" vertex="1">
          <mxGeometry y="26" width="180" height="35.57142857142857" as="geometry" />
        </mxCell>
        <mxCell id="2s-bnx9j1tC9v176qzNB-32" value="MediaType: String" style="swimlane;fontStyle=5;childLayout=stackLayout;horizontal=1;startSize=26;fillColor=none;horizontalStack=0;resizeParent=1;resizeParentMax=0;resizeLast=0;collapsible=1;marginBottom=0;" parent="oqmSebOzuupvJpAGgmBN-24" vertex="1">
          <mxGeometry x="490" y="1276.0042857142855" width="180" height="61.57142857142857" as="geometry" />
        </mxCell>
        <mxCell id="2s-bnx9j1tC9v176qzNB-39" value="String constrained to RFC 2046 specification." style="text;html=1;strokeColor=none;fillColor=none;align=center;verticalAlign=middle;whiteSpace=wrap;rounded=0;" parent="2s-bnx9j1tC9v176qzNB-32" vertex="1">
          <mxGeometry y="26" width="180" height="35.57142857142857" as="geometry" />
        </mxCell>
        <mxCell id="lbw5UqFOsXxO_sbxoh2b-45" value="IntegrityMethod" style="swimlane;fontStyle=7;childLayout=stackLayout;horizontal=1;startSize=26;fillColor=none;horizontalStack=0;resizeParent=1;resizeParentMax=0;resizeLast=0;collapsible=1;marginBottom=0;" parent="oqmSebOzuupvJpAGgmBN-24" vertex="1">
          <mxGeometry x="22.5" y="84.22000000000003" width="160" height="52" as="geometry" />
        </mxCell>
        <mxCell id="5FtSzHESpUjzpo75bhwH-4" style="edgeStyle=orthogonalEdgeStyle;rounded=0;orthogonalLoop=1;jettySize=auto;html=1;endArrow=block;endFill=0;" parent="oqmSebOzuupvJpAGgmBN-24" source="5FtSzHESpUjzpo75bhwH-0" target="lbw5UqFOsXxO_sbxoh2b-45" edge="1">
          <mxGeometry relative="1" as="geometry" />
        </mxCell>
        <mxCell id="JuGG63aiV57Z2b6Bbeer-0" value="CreationInformation" style="swimlane;fontStyle=5;childLayout=stackLayout;horizontal=1;startSize=26;fillColor=none;horizontalStack=0;resizeParent=1;resizeParentMax=0;resizeLast=0;collapsible=1;marginBottom=0;" parent="oqmSebOzuupvJpAGgmBN-24" vertex="1">
          <mxGeometry x="20" y="640.0042857142856" width="240" height="156" as="geometry" />
        </mxCell>
        <mxCell id="JuGG63aiV57Z2b6Bbeer-3" value="+ specVersion: SemVer" style="text;strokeColor=none;fillColor=none;align=left;verticalAlign=top;spacingLeft=4;spacingRight=4;overflow=hidden;rotatable=0;points=[[0,0.5],[1,0.5]];portConstraint=eastwest;" parent="JuGG63aiV57Z2b6Bbeer-0" vertex="1">
          <mxGeometry y="26" width="240" height="26" as="geometry" />
        </mxCell>
        <mxCell id="JuGG63aiV57Z2b6Bbeer-4" value="+ profile: ProfileIdentifier[1..*]" style="text;strokeColor=none;fillColor=none;align=left;verticalAlign=top;spacingLeft=4;spacingRight=4;overflow=hidden;rotatable=0;points=[[0,0.5],[1,0.5]];portConstraint=eastwest;" parent="JuGG63aiV57Z2b6Bbeer-0" vertex="1">
          <mxGeometry y="52" width="240" height="26" as="geometry" />
        </mxCell>
        <mxCell id="JuGG63aiV57Z2b6Bbeer-1" value="+ created: DateTime" style="text;strokeColor=none;fillColor=none;align=left;verticalAlign=top;spacingLeft=4;spacingRight=4;overflow=hidden;rotatable=0;points=[[0,0.5],[1,0.5]];portConstraint=eastwest;" parent="JuGG63aiV57Z2b6Bbeer-0" vertex="1">
          <mxGeometry y="78" width="240" height="26" as="geometry" />
        </mxCell>
        <mxCell id="11dFeftOe7PHnhLJCQio-32" value="+ dataLicense: &#39;CC0&#39;" style="text;strokeColor=none;fillColor=none;align=left;verticalAlign=top;spacingLeft=4;spacingRight=4;overflow=hidden;rotatable=0;points=[[0,0.5],[1,0.5]];portConstraint=eastwest;" parent="JuGG63aiV57Z2b6Bbeer-0" vertex="1">
          <mxGeometry y="104" width="240" height="26" as="geometry" />
        </mxCell>
        <mxCell id="JuGG63aiV57Z2b6Bbeer-2" value="+ createdBy: Actor[1..*]" style="text;strokeColor=none;fillColor=none;align=left;verticalAlign=top;spacingLeft=4;spacingRight=4;overflow=hidden;rotatable=0;points=[[0,0.5],[1,0.5]];portConstraint=eastwest;" parent="JuGG63aiV57Z2b6Bbeer-0" vertex="1">
          <mxGeometry y="130" width="240" height="26" as="geometry" />
        </mxCell>
        <mxCell id="JuGG63aiV57Z2b6Bbeer-5" value="ProfileIdentifier" style="swimlane;fontStyle=5;childLayout=stackLayout;horizontal=1;startSize=26;fillColor=none;horizontalStack=0;resizeParent=1;resizeParentMax=0;resizeLast=0;collapsible=1;marginBottom=0;" parent="oqmSebOzuupvJpAGgmBN-24" vertex="1">
          <mxGeometry x="280" y="388" width="120" height="78" as="geometry" />
        </mxCell>
        <mxCell id="JuGG63aiV57Z2b6Bbeer-6" value="+ name: String" style="text;strokeColor=none;fillColor=none;align=left;verticalAlign=top;spacingLeft=4;spacingRight=4;overflow=hidden;rotatable=0;points=[[0,0.5],[1,0.5]];portConstraint=eastwest;" parent="JuGG63aiV57Z2b6Bbeer-5" vertex="1">
          <mxGeometry y="26" width="120" height="26" as="geometry" />
        </mxCell>
        <mxCell id="JuGG63aiV57Z2b6Bbeer-7" value="+ version: SemVer" style="text;strokeColor=none;fillColor=none;align=left;verticalAlign=top;spacingLeft=4;spacingRight=4;overflow=hidden;rotatable=0;points=[[0,0.5],[1,0.5]];portConstraint=eastwest;" parent="JuGG63aiV57Z2b6Bbeer-5" vertex="1">
          <mxGeometry y="52" width="120" height="26" as="geometry" />
        </mxCell>
        <mxCell id="HIxk6s3NbhlS_bf0KkwK-10" value="How to handle partial/incomplete identifiers?" style="text;html=1;strokeColor=none;fillColor=none;align=center;verticalAlign=middle;whiteSpace=wrap;rounded=0;" parent="oqmSebOzuupvJpAGgmBN-24" vertex="1">
          <mxGeometry x="490" y="201.57" width="160" height="30" as="geometry" />
        </mxCell>
        <mxCell id="jUCqu7r1JRTQMiQOWCPR-8" value="&lt;h1&gt;Serialization&lt;/h1&gt;&lt;p&gt;* Collections MAY nest contained elements (i.e. elements referenced by the &quot;element&quot; property but the hash of the canonical representation MUST be equivalent to those elements not being nested. Nesting SHOULD NOT be extended beyond a single level (Q: Is this restriction possible for aggregated documents?).&lt;/p&gt;" style="text;html=1;strokeColor=none;fillColor=none;spacing=5;spacingTop=-20;whiteSpace=wrap;overflow=hidden;rounded=0;" parent="oqmSebOzuupvJpAGgmBN-24" vertex="1">
          <mxGeometry x="280" y="509" width="350" height="140" as="geometry" />
        </mxCell>
        <object label="Annotation" description="descriptive information unit attached to a datatype, or a component of a datatype, or a procedure (value), to characterize some aspect of the representations, variables, or operations associated with values of the datatype" description_source="ISO/IEC 11404:2007" id="7X9VmMs6XNZlRR0Fnkzy-4">
          <mxCell style="swimlane;fontStyle=1;childLayout=stackLayout;horizontal=1;startSize=26;fillColor=none;horizontalStack=0;resizeParent=1;resizeParentMax=0;resizeLast=0;collapsible=1;marginBottom=0;" parent="lbw5UqFOsXxO_sbxoh2b-1" vertex="1">
            <mxGeometry x="870" y="-780" width="270" height="78" as="geometry" />
          </mxCell>
        </object>
        <mxCell id="ufostXa2ktRmBCj3IWHJ-11" value="+ statement: String[0..1]" style="text;strokeColor=none;fillColor=none;align=left;verticalAlign=top;spacingLeft=4;spacingRight=4;overflow=hidden;rotatable=0;points=[[0,0.5],[1,0.5]];portConstraint=eastwest;" parent="7X9VmMs6XNZlRR0Fnkzy-4" vertex="1">
          <mxGeometry y="26" width="270" height="26" as="geometry" />
        </mxCell>
        <mxCell id="ufostXa2ktRmBCj3IWHJ-8" value="+ annotationType: AnnotationType[1]" style="text;strokeColor=none;fillColor=none;align=left;verticalAlign=top;spacingLeft=4;spacingRight=4;overflow=hidden;rotatable=0;points=[[0,0.5],[1,0.5]];portConstraint=eastwest;" parent="7X9VmMs6XNZlRR0Fnkzy-4" vertex="1">
          <mxGeometry y="52" width="270" height="26" as="geometry" />
        </mxCell>
        <mxCell id="lbw5UqFOsXxO_sbxoh2b-64" value="Relationship" style="swimlane;fontStyle=1;childLayout=stackLayout;horizontal=1;startSize=26;fillColor=#ffe6cc;horizontalStack=0;resizeParent=1;resizeParentMax=0;resizeLast=0;collapsible=1;marginBottom=0;strokeColor=#d79b00;" parent="lbw5UqFOsXxO_sbxoh2b-1" vertex="1">
          <mxGeometry x="870" y="-674" width="271" height="78" as="geometry" />
        </mxCell>
        <mxCell id="lbw5UqFOsXxO_sbxoh2b-65" value="+ relationshipType: RelationshipType" style="text;strokeColor=none;fillColor=none;align=left;verticalAlign=top;spacingLeft=4;spacingRight=4;overflow=hidden;rotatable=0;points=[[0,0.5],[1,0.5]];portConstraint=eastwest;" parent="lbw5UqFOsXxO_sbxoh2b-64" vertex="1">
          <mxGeometry y="26" width="271" height="26" as="geometry" />
        </mxCell>
        <mxCell id="lbw5UqFOsXxO_sbxoh2b-66" value="+ completeness: RelationshipCompleteness[0..1]" style="text;strokeColor=none;fillColor=none;align=left;verticalAlign=top;spacingLeft=4;spacingRight=4;overflow=hidden;rotatable=0;points=[[0,0.5],[1,0.5]];portConstraint=eastwest;" parent="lbw5UqFOsXxO_sbxoh2b-64" vertex="1">
          <mxGeometry y="52" width="271" height="26" as="geometry" />
        </mxCell>
        <mxCell id="s9GtI_vweYOVL9K8k0TA-0" value="Collection -&gt; SpdxCollection?" style="swimlane;fontStyle=3;childLayout=stackLayout;horizontal=1;startSize=26;fillColor=none;horizontalStack=0;resizeParent=1;resizeParentMax=0;resizeLast=0;collapsible=1;marginBottom=0;" parent="lbw5UqFOsXxO_sbxoh2b-1" vertex="1">
          <mxGeometry x="870" y="-577" width="271" height="78" as="geometry" />
        </mxCell>
        <mxCell id="oqmSebOzuupvJpAGgmBN-7" value="+ namespaces: NamespaceMap[0..*]" style="text;strokeColor=none;fillColor=none;align=left;verticalAlign=top;spacingLeft=4;spacingRight=4;overflow=hidden;rotatable=0;points=[[0,0.5],[1,0.5]];portConstraint=eastwest;" parent="s9GtI_vweYOVL9K8k0TA-0" vertex="1">
          <mxGeometry y="26" width="271" height="26" as="geometry" />
        </mxCell>
        <mxCell id="oqmSebOzuupvJpAGgmBN-11" value="+ imports: ExternalMap[0..*]" style="text;strokeColor=none;fillColor=none;align=left;verticalAlign=top;spacingLeft=4;spacingRight=4;overflow=hidden;rotatable=0;points=[[0,0.5],[1,0.5]];portConstraint=eastwest;" parent="s9GtI_vweYOVL9K8k0TA-0" vertex="1">
          <mxGeometry y="52" width="271" height="26" as="geometry" />
        </mxCell>
        <mxCell id="lbw5UqFOsXxO_sbxoh2b-3" value="profile Software" style="shape=umlFrame;whiteSpace=wrap;html=1;width=100;height=30;" parent="lbw5UqFOsXxO_sbxoh2b-1" vertex="1">
          <mxGeometry x="20" y="-210" width="1130" height="150" as="geometry" />
        </mxCell>
        <mxCell id="lbw5UqFOsXxO_sbxoh2b-15" value="originatedBy" style="edgeStyle=orthogonalEdgeStyle;rounded=0;orthogonalLoop=1;jettySize=auto;html=1;endArrow=block;endFill=1;" parent="lbw5UqFOsXxO_sbxoh2b-1" source="lbw5UqFOsXxO_sbxoh2b-52" target="rxyFEzK3qIhznJNs5aLL-8" edge="1">
          <mxGeometry x="-0.117" relative="1" as="geometry">
            <mxPoint as="offset" />
            <Array as="points">
              <mxPoint x="500" y="-380" />
              <mxPoint x="30" y="-380" />
              <mxPoint x="30" y="-733" />
            </Array>
            <mxPoint x="200" y="-474" as="targetPoint" />
          </mxGeometry>
        </mxCell>
        <mxCell id="lbw5UqFOsXxO_sbxoh2b-16" value="0..*" style="edgeLabel;html=1;align=center;verticalAlign=middle;resizable=0;points=[];" parent="lbw5UqFOsXxO_sbxoh2b-15" vertex="1" connectable="0">
          <mxGeometry x="0.7467" y="-1" relative="1" as="geometry">
            <mxPoint x="89" y="-28" as="offset" />
          </mxGeometry>
        </mxCell>
        <mxCell id="lbw5UqFOsXxO_sbxoh2b-17" value="*" style="edgeLabel;html=1;align=center;verticalAlign=middle;resizable=0;points=[];" parent="lbw5UqFOsXxO_sbxoh2b-15" vertex="1" connectable="0">
          <mxGeometry x="-0.7333" y="-13" relative="1" as="geometry">
            <mxPoint x="62" y="63" as="offset" />
          </mxGeometry>
        </mxCell>
        <mxCell id="lbw5UqFOsXxO_sbxoh2b-22" style="edgeStyle=orthogonalEdgeStyle;rounded=0;orthogonalLoop=1;jettySize=auto;html=1;endArrow=block;endFill=1;entryX=1;entryY=0.5;entryDx=0;entryDy=0;exitX=-0.002;exitY=0.383;exitDx=0;exitDy=0;exitPerimeter=0;" parent="lbw5UqFOsXxO_sbxoh2b-1" source="lbw5UqFOsXxO_sbxoh2b-65" target="6XS0wSoGIkXF6f-__7vX-1" edge="1">
          <mxGeometry relative="1" as="geometry">
            <mxPoint x="968" y="-601" as="sourcePoint" />
            <mxPoint x="730" y="-640" as="targetPoint" />
          </mxGeometry>
        </mxCell>
        <mxCell id="lbw5UqFOsXxO_sbxoh2b-23" value="1" style="edgeLabel;html=1;align=center;verticalAlign=middle;resizable=0;points=[];" parent="lbw5UqFOsXxO_sbxoh2b-22" vertex="1" connectable="0">
          <mxGeometry x="0.7333" y="-1" relative="1" as="geometry">
            <mxPoint x="-6" y="9" as="offset" />
          </mxGeometry>
        </mxCell>
        <mxCell id="lbw5UqFOsXxO_sbxoh2b-25" value="from" style="edgeLabel;html=1;align=center;verticalAlign=middle;resizable=0;points=[];" parent="lbw5UqFOsXxO_sbxoh2b-22" vertex="1" connectable="0">
          <mxGeometry x="-0.0071" relative="1" as="geometry">
            <mxPoint as="offset" />
          </mxGeometry>
        </mxCell>
        <mxCell id="s9GtI_vweYOVL9K8k0TA-24" value="*" style="edgeLabel;html=1;align=center;verticalAlign=middle;resizable=0;points=[];fontSize=11;" parent="lbw5UqFOsXxO_sbxoh2b-22" vertex="1" connectable="0">
          <mxGeometry x="-0.9263" y="-1" relative="1" as="geometry">
            <mxPoint y="9" as="offset" />
          </mxGeometry>
        </mxCell>
        <mxCell id="lbw5UqFOsXxO_sbxoh2b-26" style="edgeStyle=orthogonalEdgeStyle;rounded=0;orthogonalLoop=1;jettySize=auto;html=1;endArrow=block;endFill=1;entryX=1;entryY=0.5;entryDx=0;entryDy=0;" parent="lbw5UqFOsXxO_sbxoh2b-1" source="lbw5UqFOsXxO_sbxoh2b-64" target="lbw5UqFOsXxO_sbxoh2b-74" edge="1">
          <mxGeometry relative="1" as="geometry">
            <Array as="points">
              <mxPoint x="820" y="-612" />
              <mxPoint x="820" y="-612" />
            </Array>
            <mxPoint x="998" y="-601" as="sourcePoint" />
            <mxPoint x="759" y="-609" as="targetPoint" />
          </mxGeometry>
        </mxCell>
        <mxCell id="lbw5UqFOsXxO_sbxoh2b-27" value="1..*" style="edgeLabel;html=1;align=center;verticalAlign=middle;resizable=0;points=[];" parent="lbw5UqFOsXxO_sbxoh2b-26" vertex="1" connectable="0">
          <mxGeometry x="0.7556" y="-1" relative="1" as="geometry">
            <mxPoint x="-1" y="13" as="offset" />
          </mxGeometry>
        </mxCell>
        <mxCell id="lbw5UqFOsXxO_sbxoh2b-29" value="to" style="edgeLabel;html=1;align=center;verticalAlign=middle;resizable=0;points=[];" parent="lbw5UqFOsXxO_sbxoh2b-26" vertex="1" connectable="0">
          <mxGeometry x="0.1303" y="-1" relative="1" as="geometry">
            <mxPoint x="10" y="-2" as="offset" />
          </mxGeometry>
        </mxCell>
        <mxCell id="s9GtI_vweYOVL9K8k0TA-23" value="*" style="edgeLabel;html=1;align=center;verticalAlign=middle;resizable=0;points=[];fontSize=11;" parent="lbw5UqFOsXxO_sbxoh2b-26" vertex="1" connectable="0">
          <mxGeometry x="-0.9298" y="-1" relative="1" as="geometry">
            <mxPoint y="9" as="offset" />
          </mxGeometry>
        </mxCell>
        <mxCell id="lbw5UqFOsXxO_sbxoh2b-32" value="" style="endArrow=block;endSize=6;endFill=0;html=1;" parent="lbw5UqFOsXxO_sbxoh2b-1" source="lbw5UqFOsXxO_sbxoh2b-52" target="lbw5UqFOsXxO_sbxoh2b-71" edge="1">
          <mxGeometry width="160" relative="1" as="geometry">
            <mxPoint x="638" y="-619" as="sourcePoint" />
            <mxPoint x="798" y="-619" as="targetPoint" />
          </mxGeometry>
        </mxCell>
        <mxCell id="lbw5UqFOsXxO_sbxoh2b-34" value="&lt;div&gt;&lt;br&gt;&lt;/div&gt;&lt;div&gt;&lt;br&gt;&lt;/div&gt;" style="endArrow=block;endSize=6;endFill=0;html=1;rounded=0;" parent="lbw5UqFOsXxO_sbxoh2b-1" edge="1">
          <mxGeometry width="160" relative="1" as="geometry">
            <mxPoint x="870" y="-660" as="sourcePoint" />
            <mxPoint x="660" y="-660" as="targetPoint" />
          </mxGeometry>
        </mxCell>
        <mxCell id="lbw5UqFOsXxO_sbxoh2b-38" style="edgeStyle=orthogonalEdgeStyle;rounded=0;orthogonalLoop=1;jettySize=auto;html=1;startSize=6;endArrow=block;endFill=0;endSize=6;" parent="lbw5UqFOsXxO_sbxoh2b-1" source="s9GtI_vweYOVL9K8k0TA-0" target="lbw5UqFOsXxO_sbxoh2b-71" edge="1">
          <mxGeometry relative="1" as="geometry">
            <Array as="points">
              <mxPoint x="925" y="-570" />
              <mxPoint x="925" y="-570" />
            </Array>
          </mxGeometry>
        </mxCell>
        <mxCell id="lbw5UqFOsXxO_sbxoh2b-39" style="edgeStyle=orthogonalEdgeStyle;rounded=0;orthogonalLoop=1;jettySize=auto;html=1;startSize=6;endArrow=block;endFill=0;endSize=6;" parent="lbw5UqFOsXxO_sbxoh2b-1" source="lbw5UqFOsXxO_sbxoh2b-42" target="lbw5UqFOsXxO_sbxoh2b-52" edge="1">
          <mxGeometry relative="1" as="geometry">
            <mxPoint x="532.5" y="-183" as="sourcePoint" />
            <mxPoint x="532.5" y="-268" as="targetPoint" />
          </mxGeometry>
        </mxCell>
        <mxCell id="lbw5UqFOsXxO_sbxoh2b-40" style="edgeStyle=orthogonalEdgeStyle;rounded=0;orthogonalLoop=1;jettySize=auto;html=1;startSize=6;endArrow=block;endFill=0;endSize=6;exitX=0.5;exitY=0;exitDx=0;exitDy=0;" parent="lbw5UqFOsXxO_sbxoh2b-1" source="lbw5UqFOsXxO_sbxoh2b-43" target="lbw5UqFOsXxO_sbxoh2b-52" edge="1">
          <mxGeometry relative="1" as="geometry">
            <mxPoint x="770" y="-384.96000000000004" as="sourcePoint" />
            <Array as="points">
              <mxPoint x="286" y="-294" />
            </Array>
          </mxGeometry>
        </mxCell>
        <mxCell id="7X9VmMs6XNZlRR0Fnkzy-20" style="edgeStyle=orthogonalEdgeStyle;rounded=0;orthogonalLoop=1;jettySize=auto;html=1;endArrow=block;endFill=1;entryX=1;entryY=0.5;entryDx=0;entryDy=0;" parent="lbw5UqFOsXxO_sbxoh2b-1" target="HIxk6s3NbhlS_bf0KkwK-1" edge="1">
          <mxGeometry relative="1" as="geometry">
            <Array as="points" />
            <mxPoint x="870" y="-508" as="sourcePoint" />
            <mxPoint x="757" y="-516.0000000000002" as="targetPoint" />
          </mxGeometry>
        </mxCell>
        <mxCell id="7X9VmMs6XNZlRR0Fnkzy-21" value="rootElement" style="edgeLabel;html=1;align=center;verticalAlign=middle;resizable=0;points=[];" parent="7X9VmMs6XNZlRR0Fnkzy-20" vertex="1" connectable="0">
          <mxGeometry x="0.0811" y="-2" relative="1" as="geometry">
            <mxPoint as="offset" />
          </mxGeometry>
        </mxCell>
        <mxCell id="ufostXa2ktRmBCj3IWHJ-2" value="1" style="edgeLabel;html=1;align=center;verticalAlign=middle;resizable=0;points=[];" parent="7X9VmMs6XNZlRR0Fnkzy-20" vertex="1" connectable="0">
          <mxGeometry x="-0.9043" y="4" relative="1" as="geometry">
            <mxPoint y="4" as="offset" />
          </mxGeometry>
        </mxCell>
        <mxCell id="ufostXa2ktRmBCj3IWHJ-3" value="*" style="edgeLabel;html=1;align=center;verticalAlign=middle;resizable=0;points=[];" parent="7X9VmMs6XNZlRR0Fnkzy-20" vertex="1" connectable="0">
          <mxGeometry x="0.8678" y="1" relative="1" as="geometry">
            <mxPoint x="-2" y="9" as="offset" />
          </mxGeometry>
        </mxCell>
        <mxCell id="lbw5UqFOsXxO_sbxoh2b-43" value="Snippet" style="swimlane;fontStyle=1;childLayout=stackLayout;horizontal=1;startSize=26;fillColor=#d5e8d4;horizontalStack=0;resizeParent=1;resizeParentMax=0;resizeLast=0;collapsible=1;marginBottom=0;strokeColor=#82b366;" parent="lbw5UqFOsXxO_sbxoh2b-1" vertex="1">
          <mxGeometry x="166" y="-183" width="240" height="78" as="geometry" />
        </mxCell>
        <mxCell id="lbw5UqFOsXxO_sbxoh2b-44" value="+ snippetPurpose: SoftwarePurpose [0..*]" style="text;strokeColor=none;fillColor=none;align=left;verticalAlign=top;spacingLeft=4;spacingRight=4;overflow=hidden;rotatable=0;points=[[0,0.5],[1,0.5]];portConstraint=eastwest;" parent="lbw5UqFOsXxO_sbxoh2b-43" vertex="1">
          <mxGeometry y="26" width="240" height="26" as="geometry" />
        </mxCell>
        <mxCell id="t8FX-Gni1pE77RGUYnyY-1" value="+ location: SnippetLocation" style="text;strokeColor=none;fillColor=none;align=left;verticalAlign=top;spacingLeft=4;spacingRight=4;overflow=hidden;rotatable=0;points=[[0,0.5],[1,0.5]];portConstraint=eastwest;" parent="lbw5UqFOsXxO_sbxoh2b-43" vertex="1">
          <mxGeometry y="52" width="240" height="26" as="geometry" />
        </mxCell>
        <object label="File" description="An unambiguously named collection of structured information having a common set of attributes." description_source="ISO 8571-1:1988" id="lbw5UqFOsXxO_sbxoh2b-42">
          <mxCell style="swimlane;fontStyle=1;childLayout=stackLayout;horizontal=1;startSize=26;fillColor=#d5e8d4;horizontalStack=0;resizeParent=1;resizeParentMax=0;resizeLast=0;collapsible=1;marginBottom=0;strokeColor=#82b366;" parent="lbw5UqFOsXxO_sbxoh2b-1" vertex="1">
            <mxGeometry x="425.75" y="-183" width="213.5" height="78" as="geometry" />
          </mxCell>
        </object>
        <mxCell id="6XS0wSoGIkXF6f-__7vX-6" value="+ filePurpose: SoftwarePurpose [0..*]" style="text;strokeColor=none;fillColor=none;align=left;verticalAlign=top;spacingLeft=4;spacingRight=4;overflow=hidden;rotatable=0;points=[[0,0.5],[1,0.5]];portConstraint=eastwest;" parent="lbw5UqFOsXxO_sbxoh2b-42" vertex="1">
          <mxGeometry y="26" width="213.5" height="26" as="geometry" />
        </mxCell>
        <mxCell id="6XS0wSoGIkXF6f-__7vX-9" value="+ contentType: MediaType [0..1]" style="text;strokeColor=none;fillColor=none;align=left;verticalAlign=top;spacingLeft=4;spacingRight=4;overflow=hidden;rotatable=0;points=[[0,0.5],[1,0.5]];portConstraint=eastwest;" parent="lbw5UqFOsXxO_sbxoh2b-42" vertex="1">
          <mxGeometry y="52" width="213.5" height="26" as="geometry" />
        </mxCell>
        <mxCell id="11dFeftOe7PHnhLJCQio-26" style="edgeStyle=orthogonalEdgeStyle;rounded=0;orthogonalLoop=1;jettySize=auto;html=1;endArrow=block;endFill=0;" parent="lbw5UqFOsXxO_sbxoh2b-1" source="11dFeftOe7PHnhLJCQio-24" target="lbw5UqFOsXxO_sbxoh2b-52" edge="1">
          <mxGeometry relative="1" as="geometry">
            <Array as="points">
              <mxPoint x="780" y="-294" />
            </Array>
            <mxPoint x="710" y="-321" as="targetPoint" />
          </mxGeometry>
        </mxCell>
        <object label="Package" description="set of related components that are combined into a single distributable item" description_source="ISO/IEC/IEEE 24765:2017" id="11dFeftOe7PHnhLJCQio-24">
          <mxCell style="swimlane;fontStyle=1;childLayout=stackLayout;horizontal=1;startSize=26;fillColor=#d5e8d4;horizontalStack=0;resizeParent=1;resizeParentMax=0;resizeLast=0;collapsible=1;marginBottom=0;strokeColor=#82b366;" parent="lbw5UqFOsXxO_sbxoh2b-1" vertex="1">
            <mxGeometry x="656" y="-183" width="240" height="104" as="geometry" />
          </mxCell>
        </object>
        <mxCell id="11dFeftOe7PHnhLJCQio-25" value="+ packagePurpose: SoftwarePurpose [0..*]" style="text;strokeColor=none;fillColor=none;align=left;verticalAlign=top;spacingLeft=4;spacingRight=4;overflow=hidden;rotatable=0;points=[[0,0.5],[1,0.5]];portConstraint=eastwest;" parent="11dFeftOe7PHnhLJCQio-24" vertex="1">
          <mxGeometry y="26" width="240" height="26" as="geometry" />
        </mxCell>
        <mxCell id="aa5LsE9J3QLMif-ZBd8X-0" value="+ downloadLocation: URL [0..1]" style="text;strokeColor=none;fillColor=none;align=left;verticalAlign=top;spacingLeft=4;spacingRight=4;overflow=hidden;rotatable=0;points=[[0,0.5],[1,0.5]];portConstraint=eastwest;" parent="11dFeftOe7PHnhLJCQio-24" vertex="1">
          <mxGeometry y="52" width="240" height="26" as="geometry" />
        </mxCell>
        <mxCell id="aa5LsE9J3QLMif-ZBd8X-1" value="+ homePage: URL[0..1]" style="text;strokeColor=none;fillColor=none;align=left;verticalAlign=top;spacingLeft=4;spacingRight=4;overflow=hidden;rotatable=0;points=[[0,0.5],[1,0.5]];portConstraint=eastwest;" parent="11dFeftOe7PHnhLJCQio-24" vertex="1">
          <mxGeometry y="78" width="240" height="26" as="geometry" />
        </mxCell>
        <mxCell id="ufostXa2ktRmBCj3IWHJ-5" style="edgeStyle=orthogonalEdgeStyle;rounded=0;orthogonalLoop=1;jettySize=auto;html=1;endArrow=block;endFill=1;entryX=1;entryY=0.5;entryDx=0;entryDy=0;" parent="lbw5UqFOsXxO_sbxoh2b-1" source="7X9VmMs6XNZlRR0Fnkzy-4" target="lbw5UqFOsXxO_sbxoh2b-72" edge="1">
          <mxGeometry relative="1" as="geometry">
            <Array as="points">
              <mxPoint x="900" y="-716" />
              <mxPoint x="900" y="-716" />
            </Array>
            <mxPoint x="999.5" y="-724" as="sourcePoint" />
            <mxPoint x="730" y="-720" as="targetPoint" />
          </mxGeometry>
        </mxCell>
        <mxCell id="ufostXa2ktRmBCj3IWHJ-6" value="*" style="edgeLabel;html=1;align=center;verticalAlign=middle;resizable=0;points=[];" parent="ufostXa2ktRmBCj3IWHJ-5" vertex="1" connectable="0">
          <mxGeometry x="0.8919" y="-1" relative="1" as="geometry">
            <mxPoint x="189" y="7" as="offset" />
          </mxGeometry>
        </mxCell>
        <mxCell id="ufostXa2ktRmBCj3IWHJ-7" value="1" style="edgeLabel;html=1;align=center;verticalAlign=middle;resizable=0;points=[];" parent="ufostXa2ktRmBCj3IWHJ-5" vertex="1" connectable="0">
          <mxGeometry x="-0.9392" y="-3" relative="1" as="geometry">
            <mxPoint x="-184" y="9" as="offset" />
          </mxGeometry>
        </mxCell>
        <mxCell id="ufostXa2ktRmBCj3IWHJ-9" value="subject" style="edgeLabel;html=1;align=center;verticalAlign=middle;resizable=0;points=[];" parent="ufostXa2ktRmBCj3IWHJ-5" vertex="1" connectable="0">
          <mxGeometry x="-0.3544" y="1" relative="1" as="geometry">
            <mxPoint x="-24" as="offset" />
          </mxGeometry>
        </mxCell>
        <mxCell id="sJUtZFJU5kNpszgg1n5P-0" style="edgeStyle=orthogonalEdgeStyle;rounded=0;orthogonalLoop=1;jettySize=auto;html=1;endArrow=block;endFill=0;" parent="lbw5UqFOsXxO_sbxoh2b-1" source="7X9VmMs6XNZlRR0Fnkzy-4" target="lbw5UqFOsXxO_sbxoh2b-71" edge="1">
          <mxGeometry relative="1" as="geometry">
            <Array as="points">
              <mxPoint x="940" y="-750" />
              <mxPoint x="940" y="-750" />
            </Array>
          </mxGeometry>
        </mxCell>
        <mxCell id="Hp9Ntdexx7QzVjVITUbm-6" style="edgeStyle=orthogonalEdgeStyle;rounded=0;orthogonalLoop=1;jettySize=auto;html=1;endArrow=block;endFill=0;" parent="lbw5UqFOsXxO_sbxoh2b-1" source="Hp9Ntdexx7QzVjVITUbm-0" target="jUCqu7r1JRTQMiQOWCPR-1" edge="1">
          <mxGeometry relative="1" as="geometry">
            <Array as="points">
              <mxPoint x="1032" y="-350" />
              <mxPoint x="1032" y="-350" />
            </Array>
          </mxGeometry>
        </mxCell>
        <object label="BOM" description="presentation of the constituents in a product structure with the possibility to adapt the level of decomposition to actual need" description_source="ISO 10209:2022" id="Hp9Ntdexx7QzVjVITUbm-0">
          <mxCell style="swimlane;fontStyle=1;childLayout=stackLayout;horizontal=1;startSize=26;fillColor=#d5e8d4;horizontalStack=0;resizeParent=1;resizeParentMax=0;resizeLast=0;collapsible=1;marginBottom=0;strokeColor=#82b366;" parent="lbw5UqFOsXxO_sbxoh2b-1" vertex="1">
            <mxGeometry x="961" y="-320" width="140" height="52" as="geometry" />
          </mxCell>
        </object>
        <mxCell id="Hp9Ntdexx7QzVjVITUbm-5" style="edgeStyle=orthogonalEdgeStyle;rounded=0;orthogonalLoop=1;jettySize=auto;html=1;entryX=0.5;entryY=1;entryDx=0;entryDy=0;endArrow=block;endFill=0;" parent="lbw5UqFOsXxO_sbxoh2b-1" source="Hp9Ntdexx7QzVjVITUbm-4" target="Hp9Ntdexx7QzVjVITUbm-0" edge="1">
          <mxGeometry relative="1" as="geometry" />
        </mxCell>
        <mxCell id="Hp9Ntdexx7QzVjVITUbm-4" value="SBOM" style="swimlane;fontStyle=1;childLayout=stackLayout;horizontal=1;startSize=26;fillColor=#d5e8d4;horizontalStack=0;resizeParent=1;resizeParentMax=0;resizeLast=0;collapsible=1;marginBottom=0;strokeColor=#82b366;" parent="lbw5UqFOsXxO_sbxoh2b-1" vertex="1">
          <mxGeometry x="961" y="-183" width="140" height="52" as="geometry" />
        </mxCell>
        <mxCell id="7X9VmMs6XNZlRR0Fnkzy-22" value="element" style="edgeStyle=orthogonalEdgeStyle;rounded=0;orthogonalLoop=1;jettySize=auto;html=1;endArrow=block;endFill=1;" parent="lbw5UqFOsXxO_sbxoh2b-1" source="s9GtI_vweYOVL9K8k0TA-0" target="lbw5UqFOsXxO_sbxoh2b-71" edge="1">
          <mxGeometry relative="1" as="geometry">
            <mxPoint x="925" y="-475" as="sourcePoint" />
            <Array as="points">
              <mxPoint x="975" y="-543" />
              <mxPoint x="975" y="-543" />
            </Array>
          </mxGeometry>
        </mxCell>
        <mxCell id="ufostXa2ktRmBCj3IWHJ-1" value="*" style="edgeLabel;html=1;align=center;verticalAlign=middle;resizable=0;points=[];labelBackgroundColor=none;" parent="7X9VmMs6XNZlRR0Fnkzy-22" vertex="1" connectable="0">
          <mxGeometry x="0.7855" y="-3" relative="1" as="geometry">
            <mxPoint x="-11.2" y="10.4" as="offset" />
          </mxGeometry>
        </mxCell>
        <mxCell id="ufostXa2ktRmBCj3IWHJ-0" value="1" style="edgeLabel;html=1;align=center;verticalAlign=middle;resizable=0;points=[];" parent="7X9VmMs6XNZlRR0Fnkzy-22" vertex="1" connectable="0">
          <mxGeometry x="-0.8991" relative="1" as="geometry">
            <mxPoint x="0.8000000000000007" y="8" as="offset" />
          </mxGeometry>
        </mxCell>
        <mxCell id="i96TENkFGXGZsbyjhHRI-8" style="edgeStyle=orthogonalEdgeStyle;rounded=0;orthogonalLoop=1;jettySize=auto;html=1;" parent="lbw5UqFOsXxO_sbxoh2b-1" edge="1">
          <mxGeometry relative="1" as="geometry">
            <mxPoint x="1180" y="120" as="targetPoint" />
          </mxGeometry>
        </mxCell>
        <mxCell id="i96TENkFGXGZsbyjhHRI-13" style="edgeStyle=orthogonalEdgeStyle;rounded=0;orthogonalLoop=1;jettySize=auto;html=1;" parent="lbw5UqFOsXxO_sbxoh2b-1" edge="1">
          <mxGeometry relative="1" as="geometry">
            <mxPoint x="1180" y="120" as="targetPoint" />
          </mxGeometry>
        </mxCell>
        <mxCell id="eatYn8EK-HgDlf0eNMnl-6" style="edgeStyle=orthogonalEdgeStyle;rounded=0;orthogonalLoop=1;jettySize=auto;html=1;exitX=0.5;exitY=1;exitDx=0;exitDy=0;entryX=0.5;entryY=0;entryDx=0;entryDy=0;endArrow=block;endFill=1;" parent="lbw5UqFOsXxO_sbxoh2b-1" edge="1">
          <mxGeometry relative="1" as="geometry">
            <mxPoint x="1260" y="110" as="sourcePoint" />
          </mxGeometry>
        </mxCell>
        <mxCell id="9n37-99fDzPxN-UqtnET-11" style="edgeStyle=orthogonalEdgeStyle;rounded=0;orthogonalLoop=1;jettySize=auto;html=1;" parent="lbw5UqFOsXxO_sbxoh2b-1" edge="1">
          <mxGeometry relative="1" as="geometry">
            <mxPoint x="930" y="50" as="targetPoint" />
          </mxGeometry>
        </mxCell>
        <mxCell id="9n37-99fDzPxN-UqtnET-12" style="edgeStyle=orthogonalEdgeStyle;rounded=0;orthogonalLoop=1;jettySize=auto;html=1;" parent="lbw5UqFOsXxO_sbxoh2b-1" edge="1">
          <mxGeometry relative="1" as="geometry">
            <mxPoint x="1102" y="50" as="targetPoint" />
          </mxGeometry>
        </mxCell>
        <mxCell id="9n37-99fDzPxN-UqtnET-33" style="edgeStyle=orthogonalEdgeStyle;rounded=0;orthogonalLoop=1;jettySize=auto;html=1;entryX=0.25;entryY=1;entryDx=0;entryDy=0;endArrow=block;endFill=0;" parent="lbw5UqFOsXxO_sbxoh2b-1" edge="1">
          <mxGeometry relative="1" as="geometry">
            <mxPoint x="1293" y="-52" as="targetPoint" />
          </mxGeometry>
        </mxCell>
        <mxCell id="9n37-99fDzPxN-UqtnET-32" style="edgeStyle=orthogonalEdgeStyle;rounded=0;orthogonalLoop=1;jettySize=auto;html=1;entryX=0.75;entryY=1;entryDx=0;entryDy=0;endArrow=block;endFill=0;" parent="lbw5UqFOsXxO_sbxoh2b-1" edge="1">
          <mxGeometry relative="1" as="geometry">
            <mxPoint x="1353" y="-52" as="targetPoint" />
          </mxGeometry>
        </mxCell>
        <mxCell id="9n37-99fDzPxN-UqtnET-20" style="edgeStyle=orthogonalEdgeStyle;rounded=0;orthogonalLoop=1;jettySize=auto;html=1;exitX=0.5;exitY=0;exitDx=0;exitDy=0;entryX=1;entryY=0.5;entryDx=0;entryDy=0;" parent="lbw5UqFOsXxO_sbxoh2b-1" edge="1">
          <mxGeometry relative="1" as="geometry">
            <mxPoint x="1162" y="20" as="targetPoint" />
          </mxGeometry>
        </mxCell>
        <mxCell id="9n37-99fDzPxN-UqtnET-21" style="edgeStyle=orthogonalEdgeStyle;rounded=0;orthogonalLoop=1;jettySize=auto;html=1;exitX=0.75;exitY=0;exitDx=0;exitDy=0;entryX=0.75;entryY=0;entryDx=0;entryDy=0;" parent="lbw5UqFOsXxO_sbxoh2b-1" edge="1">
          <mxGeometry relative="1" as="geometry">
            <mxPoint x="960" y="-10" as="targetPoint" />
          </mxGeometry>
        </mxCell>
        <mxCell id="9n37-99fDzPxN-UqtnET-19" style="edgeStyle=orthogonalEdgeStyle;rounded=0;orthogonalLoop=1;jettySize=auto;html=1;" parent="lbw5UqFOsXxO_sbxoh2b-1" edge="1">
          <mxGeometry relative="1" as="geometry">
            <mxPoint x="1203" y="260" as="targetPoint" />
          </mxGeometry>
        </mxCell>
        <mxCell id="9n37-99fDzPxN-UqtnET-23" style="edgeStyle=orthogonalEdgeStyle;rounded=0;orthogonalLoop=1;jettySize=auto;html=1;" parent="lbw5UqFOsXxO_sbxoh2b-1" edge="1">
          <mxGeometry relative="1" as="geometry">
            <mxPoint x="1345" y="260" as="targetPoint" />
          </mxGeometry>
        </mxCell>
        <mxCell id="9n37-99fDzPxN-UqtnET-25" style="edgeStyle=orthogonalEdgeStyle;rounded=0;orthogonalLoop=1;jettySize=auto;html=1;" parent="lbw5UqFOsXxO_sbxoh2b-1" edge="1">
          <mxGeometry relative="1" as="geometry">
            <mxPoint x="1345" y="140" as="sourcePoint" />
          </mxGeometry>
        </mxCell>
        <mxCell id="9n37-99fDzPxN-UqtnET-27" style="edgeStyle=orthogonalEdgeStyle;rounded=0;orthogonalLoop=1;jettySize=auto;html=1;entryX=1;entryY=0.5;entryDx=0;entryDy=0;" parent="lbw5UqFOsXxO_sbxoh2b-1" edge="1">
          <mxGeometry relative="1" as="geometry">
            <Array as="points">
              <mxPoint x="1380" y="315" />
              <mxPoint x="1425" y="315" />
              <mxPoint x="1425" y="230" />
            </Array>
            <mxPoint x="1405" y="230" as="targetPoint" />
          </mxGeometry>
        </mxCell>
        <mxCell id="9n37-99fDzPxN-UqtnET-50" style="edgeStyle=orthogonalEdgeStyle;rounded=0;orthogonalLoop=1;jettySize=auto;html=1;endArrow=block;endFill=0;" parent="lbw5UqFOsXxO_sbxoh2b-1" edge="1">
          <mxGeometry relative="1" as="geometry">
            <mxPoint x="603.25" y="210" as="sourcePoint" />
          </mxGeometry>
        </mxCell>
        <mxCell id="9n37-99fDzPxN-UqtnET-42" style="edgeStyle=orthogonalEdgeStyle;rounded=0;orthogonalLoop=1;jettySize=auto;html=1;endArrow=block;endFill=0;" parent="lbw5UqFOsXxO_sbxoh2b-1" edge="1">
          <mxGeometry relative="1" as="geometry">
            <mxPoint x="663.3" y="240" as="targetPoint" />
          </mxGeometry>
        </mxCell>
        <mxCell id="9n37-99fDzPxN-UqtnET-43" value="" style="edgeStyle=orthogonalEdgeStyle;rounded=0;orthogonalLoop=1;jettySize=auto;html=1;endArrow=block;endFill=0;" parent="lbw5UqFOsXxO_sbxoh2b-1" edge="1">
          <mxGeometry relative="1" as="geometry">
            <mxPoint x="660" y="340" as="sourcePoint" />
          </mxGeometry>
        </mxCell>
        <mxCell id="9n37-99fDzPxN-UqtnET-49" style="edgeStyle=orthogonalEdgeStyle;rounded=0;orthogonalLoop=1;jettySize=auto;html=1;entryX=0.25;entryY=1;entryDx=0;entryDy=0;endArrow=block;endFill=0;" parent="lbw5UqFOsXxO_sbxoh2b-1" edge="1">
          <mxGeometry relative="1" as="geometry">
            <mxPoint x="855" y="240" as="targetPoint" />
          </mxGeometry>
        </mxCell>
        <mxCell id="9n37-99fDzPxN-UqtnET-47" style="edgeStyle=orthogonalEdgeStyle;rounded=0;orthogonalLoop=1;jettySize=auto;html=1;endArrow=block;endFill=0;" parent="lbw5UqFOsXxO_sbxoh2b-1" edge="1">
          <mxGeometry relative="1" as="geometry">
            <mxPoint x="885" y="240" as="targetPoint" />
          </mxGeometry>
        </mxCell>
        <mxCell id="vpzv6-2MOStUy2rxt9Jq-10" style="edgeStyle=orthogonalEdgeStyle;rounded=0;orthogonalLoop=1;jettySize=auto;html=1;endArrow=block;endFill=0;" parent="lbw5UqFOsXxO_sbxoh2b-1" edge="1">
          <mxGeometry relative="1" as="geometry">
            <mxPoint x="1825" y="2.2737367544323206e-13" as="sourcePoint" />
          </mxGeometry>
        </mxCell>
        <mxCell id="vpzv6-2MOStUy2rxt9Jq-26" style="edgeStyle=orthogonalEdgeStyle;rounded=0;orthogonalLoop=1;jettySize=auto;html=1;endArrow=block;endFill=0;" parent="lbw5UqFOsXxO_sbxoh2b-1" edge="1">
          <mxGeometry relative="1" as="geometry">
            <mxPoint x="1830" y="-344" as="targetPoint" />
          </mxGeometry>
        </mxCell>
        <mxCell id="vpzv6-2MOStUy2rxt9Jq-27" value="ranIn" style="edgeLabel;html=1;align=center;verticalAlign=middle;resizable=0;points=[];" parent="vpzv6-2MOStUy2rxt9Jq-26" vertex="1" connectable="0">
          <mxGeometry x="-0.2705" relative="1" as="geometry">
            <mxPoint as="offset" />
          </mxGeometry>
        </mxCell>
        <mxCell id="oqmSebOzuupvJpAGgmBN-19" value="" style="group" parent="lbw5UqFOsXxO_sbxoh2b-1" vertex="1" connectable="0">
          <mxGeometry x="20" y="-50" width="180" height="170" as="geometry" />
        </mxCell>
        <mxCell id="oqmSebOzuupvJpAGgmBN-23" value="" style="group" parent="oqmSebOzuupvJpAGgmBN-19" vertex="1" connectable="0">
          <mxGeometry width="180" height="170" as="geometry" />
        </mxCell>
        <mxCell id="hBQ92XNWdtuRmHTL2KXj-0" value="profile Licensing" style="shape=umlFrame;whiteSpace=wrap;html=1;width=100;height=30;" parent="oqmSebOzuupvJpAGgmBN-23" vertex="1">
          <mxGeometry width="180" height="170" as="geometry" />
        </mxCell>
        <mxCell id="hBQ92XNWdtuRmHTL2KXj-2" value="Legal WG" style="text;strokeColor=none;fillColor=none;html=1;fontSize=24;fontStyle=1;verticalAlign=middle;align=center;" parent="oqmSebOzuupvJpAGgmBN-23" vertex="1">
          <mxGeometry x="76.95652173913042" y="69.7" width="26.086956521739133" height="34" as="geometry" />
        </mxCell>
        <mxCell id="rxyFEzK3qIhznJNs5aLL-12" style="rounded=0;orthogonalLoop=1;jettySize=auto;html=1;endArrow=block;endFill=0;exitX=1;exitY=0.5;exitDx=0;exitDy=0;entryX=0.004;entryY=0.038;entryDx=0;entryDy=0;entryPerimeter=0;" parent="lbw5UqFOsXxO_sbxoh2b-1" source="rxyFEzK3qIhznJNs5aLL-8" target="lbw5UqFOsXxO_sbxoh2b-72" edge="1">
          <mxGeometry relative="1" as="geometry">
            <mxPoint x="400" y="-740" as="targetPoint" />
          </mxGeometry>
        </mxCell>
        <mxCell id="rxyFEzK3qIhznJNs5aLL-8" value="Actor" style="swimlane;fontStyle=1;childLayout=stackLayout;horizontal=1;startSize=26;fillColor=none;horizontalStack=0;resizeParent=1;resizeParentMax=0;resizeLast=0;collapsible=1;marginBottom=0;" parent="lbw5UqFOsXxO_sbxoh2b-1" vertex="1">
          <mxGeometry x="140" y="-755" width="140" height="52" as="geometry" />
        </mxCell>
        <mxCell id="rxyFEzK3qIhznJNs5aLL-20" value="&lt;h1&gt;Minimal Example (JSON)&lt;/h1&gt;&lt;p&gt;&lt;font face=&quot;Courier New&quot;&gt;{&lt;br&gt;&amp;nbsp; &quot;@type&quot;: &quot;SpdxDocument&quot;,&lt;br&gt;&amp;nbsp; &quot;@id&quot;: &quot;urn:spdx.dev:null-document&quot;,&lt;br&gt;&amp;nbsp; &quot;specVersion&quot;: &quot;3.0&quot;,&lt;br&gt;&amp;nbsp; &quot;created&quot;: &quot;2022-05-02T20:28:00.000Z&quot;,&lt;br&gt;&amp;nbsp; &quot;profile&quot;: [&quot;core&quot;],&lt;br&gt;&amp;nbsp; &quot;dataLicense&quot;: &quot;CC0&quot;,&lt;br&gt;&amp;nbsp; &quot;createdBy&quot;: &quot;urn:spdx.dev:iamwillbar&quot;,&lt;br&gt;&amp;nbsp; &quot;elements&quot;: [&lt;br&gt;&amp;nbsp; &amp;nbsp; {&lt;br&gt;&amp;nbsp; &amp;nbsp; &amp;nbsp; &quot;@type&quot;: &quot;Person&quot;,&lt;br&gt;&amp;nbsp; &amp;nbsp; &amp;nbsp; &quot;@id&quot;: &quot;urn:spdx.dev:iamwillbar&quot;&lt;br&gt;&amp;nbsp; &amp;nbsp; }&lt;br&gt;&amp;nbsp; ]&lt;br&gt;&lt;span&gt;}&lt;/span&gt;&lt;/font&gt;&lt;/p&gt;&lt;p&gt;&lt;font face=&quot;Courier New&quot;&gt;&lt;span&gt;&lt;br&gt;&lt;/span&gt;&lt;/font&gt;&lt;/p&gt;&lt;p&gt;&lt;span style=&quot;font-family: &amp;quot;Courier New&amp;quot;;&quot;&gt;{&lt;/span&gt;&lt;br style=&quot;font-family: &amp;quot;Courier New&amp;quot;;&quot;&gt;&lt;span style=&quot;font-family: &amp;quot;Courier New&amp;quot;;&quot;&gt;&amp;nbsp;&amp;nbsp;&lt;/span&gt;&lt;span style=&quot;font-family: &amp;quot;Courier New&amp;quot;;&quot;&gt;&quot;@type&quot;: &quot;Person&quot;,&lt;/span&gt;&lt;br style=&quot;font-family: &amp;quot;Courier New&amp;quot;;&quot;&gt;&lt;span style=&quot;font-family: &amp;quot;Courier New&amp;quot;;&quot;&gt;&amp;nbsp; &quot;@id&quot;: &quot;urn:spdx.dev:iamwillbar&quot;&lt;/span&gt;&lt;span style=&quot;font-family: &amp;quot;Courier New&amp;quot;;&quot;&gt;,&lt;/span&gt;&lt;br style=&quot;font-family: &amp;quot;Courier New&amp;quot;;&quot;&gt;&lt;span style=&quot;font-family: &amp;quot;Courier New&amp;quot;;&quot;&gt;&amp;nbsp; &quot;specVersion&quot;: &quot;3.0&quot;,&lt;/span&gt;&lt;br style=&quot;font-family: &amp;quot;Courier New&amp;quot;;&quot;&gt;&lt;span style=&quot;font-family: &amp;quot;Courier New&amp;quot;;&quot;&gt;&amp;nbsp; &quot;created&quot;: &quot;2022-05-02T20:28:00.000Z&quot;,&lt;/span&gt;&lt;br style=&quot;font-family: &amp;quot;Courier New&amp;quot;;&quot;&gt;&lt;span style=&quot;font-family: &amp;quot;Courier New&amp;quot;;&quot;&gt;&amp;nbsp; &quot;profile&quot;: [&quot;core&quot;],&lt;/span&gt;&lt;br style=&quot;font-family: &amp;quot;Courier New&amp;quot;;&quot;&gt;&lt;span style=&quot;font-family: &amp;quot;Courier New&amp;quot;;&quot;&gt;&amp;nbsp; &quot;dataLicense&quot;: &quot;CC0&quot;,&lt;/span&gt;&lt;br style=&quot;font-family: &amp;quot;Courier New&amp;quot;;&quot;&gt;&lt;span style=&quot;font-family: &amp;quot;Courier New&amp;quot;;&quot;&gt;&amp;nbsp; &quot;createdBy&quot;: &quot;urn:spdx.dev:iamwillbar&quot;&lt;/span&gt;&lt;br style=&quot;font-family: &amp;quot;Courier New&amp;quot;;&quot;&gt;&lt;span style=&quot;font-family: &amp;quot;Courier New&amp;quot;;&quot;&gt;}&lt;/span&gt;&lt;font face=&quot;Courier New&quot;&gt;&lt;span&gt;&lt;br&gt;&lt;/span&gt;&lt;/font&gt;&lt;/p&gt;&lt;p&gt;&lt;span style=&quot;font-family: &amp;quot;Courier New&amp;quot;;&quot;&gt;&lt;br&gt;&lt;/span&gt;&lt;/p&gt;&lt;p&gt;&lt;span style=&quot;font-family: &amp;quot;Courier New&amp;quot;;&quot;&gt;[&lt;/span&gt;&lt;/p&gt;&lt;p&gt;&lt;span style=&quot;font-family: &amp;quot;Courier New&amp;quot;;&quot;&gt;&lt;br&gt;&lt;/span&gt;&lt;/p&gt;&lt;p&gt;&lt;span style=&quot;font-family: &amp;quot;Courier New&amp;quot;;&quot;&gt;]&lt;/span&gt;&lt;/p&gt;" style="text;html=1;strokeColor=default;fillColor=none;spacing=5;spacingTop=-20;whiteSpace=wrap;overflow=hidden;rounded=0;" parent="lbw5UqFOsXxO_sbxoh2b-1" vertex="1">
          <mxGeometry x="20" y="130" width="370" height="700" as="geometry" />
        </mxCell>
        <mxCell id="rxyFEzK3qIhznJNs5aLL-21" value="&lt;h1&gt;SBOM Example (JSON)&lt;/h1&gt;&lt;p&gt;&lt;font face=&quot;Courier New&quot;&gt;{&lt;br&gt;&amp;nbsp; &quot;@type&quot;: &quot;SBOM&quot;,&lt;br&gt;&amp;nbsp; &quot;@id&quot;: &quot;urn:spdx.dev:null-sbom&quot;,&lt;br&gt;&lt;/font&gt;&lt;span style=&quot;font-family: &amp;quot;Courier New&amp;quot;; background-color: initial;&quot;&gt;&amp;nbsp; &quot;creationInfo&quot;: {&lt;br&gt;&lt;/span&gt;&lt;span style=&quot;font-family: &amp;quot;Courier New&amp;quot;; background-color: initial;&quot;&gt;&amp;nbsp; &amp;nbsp; &quot;specVersion&quot;: &quot;3.0&quot;,&lt;br&gt;&lt;/span&gt;&lt;span style=&quot;font-family: &amp;quot;Courier New&amp;quot;; background-color: initial;&quot;&gt;&amp;nbsp; &amp;nbsp; &quot;created&quot;: &quot;2022-05-02T20:28:00.000Z&quot;,&lt;br&gt;&lt;/span&gt;&lt;span style=&quot;font-family: &amp;quot;Courier New&amp;quot;; background-color: initial;&quot;&gt;&amp;nbsp; &amp;nbsp; &quot;profile&quot;: [&quot;core&quot;],&lt;br&gt;&lt;/span&gt;&lt;span style=&quot;font-family: &amp;quot;Courier New&amp;quot;; background-color: initial;&quot;&gt;&amp;nbsp; &amp;nbsp; &quot;dataLicense&quot;: &quot;CC0&quot;,&lt;br&gt;&lt;/span&gt;&lt;span style=&quot;font-family: &amp;quot;Courier New&amp;quot;; background-color: initial;&quot;&gt;&amp;nbsp; &amp;nbsp; &quot;createdBy&quot;: &quot;urn:spdx.dev:iamwillbar&quot;&lt;br&gt;&lt;/span&gt;&lt;span style=&quot;font-family: &amp;quot;Courier New&amp;quot;; background-color: initial;&quot;&gt;&amp;nbsp; },&lt;br&gt;&lt;/span&gt;&lt;span style=&quot;font-family: &amp;quot;Courier New&amp;quot;; background-color: initial;&quot;&gt;&amp;nbsp; &quot;rootElements&quot;: [&quot;urn:spdx.dev:spdx-tools-3.0.1&quot;],&lt;br&gt;&lt;/span&gt;&lt;span style=&quot;background-color: initial; font-family: &amp;quot;Courier New&amp;quot;;&quot;&gt;&amp;nbsp; &quot;externalMap&quot;: [&lt;br&gt;&lt;/span&gt;&lt;span style=&quot;background-color: initial; font-family: &amp;quot;Courier New&amp;quot;;&quot;&gt;&amp;nbsp; &amp;nbsp; {&quot;elementId&quot;: &quot;urn:spdx.dev:project&quot;, &quot;elementURL&quot;: &quot;&quot;, &quot;verifiedUsing&quot;: []},&lt;br&gt;&lt;/span&gt;&lt;span style=&quot;background-color: initial; font-family: &amp;quot;Courier New&amp;quot;;&quot;&gt;&amp;nbsp; &amp;nbsp; {&quot;elementId&quot;: &quot;urn:spdx.dev:doc&quot;, &quot;elementURL&quot;: &quot;https://spdx.dev/docs/v1.0.json&quot;, &quot;verifiedUsing&quot;: []}&lt;br&gt;&lt;/span&gt;&lt;span style=&quot;background-color: initial; font-family: &amp;quot;Courier New&amp;quot;;&quot;&gt;&amp;nbsp; ],&lt;br&gt;&lt;/span&gt;&lt;span style=&quot;background-color: initial; font-family: &amp;quot;Courier New&amp;quot;;&quot;&gt;&amp;nbsp; &quot;elements&quot;: [&lt;br&gt;&lt;/span&gt;&lt;span style=&quot;background-color: initial; font-family: &amp;quot;Courier New&amp;quot;;&quot;&gt;&amp;nbsp; &amp;nbsp; {&lt;br&gt;&lt;/span&gt;&lt;span style=&quot;font-family: &amp;quot;Courier New&amp;quot;; background-color: initial;&quot;&gt;&amp;nbsp; &amp;nbsp; &amp;nbsp; &quot;@type&quot;: &quot;Person&quot;,&lt;br&gt;&lt;/span&gt;&lt;span style=&quot;font-family: &amp;quot;Courier New&amp;quot;; background-color: initial;&quot;&gt;&amp;nbsp; &amp;nbsp; &amp;nbsp; &quot;@id&quot;: &quot;urn:spdx.dev:iamwillbar&quot;,&lt;br&gt;&lt;/span&gt;&lt;span style=&quot;font-family: &amp;quot;Courier New&amp;quot;; background-color: initial;&quot;&gt;&amp;nbsp; &amp;nbsp; &amp;nbsp; &quot;name&quot;: &quot;William Bartholomew&quot;,&lt;br&gt;&lt;/span&gt;&lt;span style=&quot;font-family: &amp;quot;Courier New&amp;quot;; background-color: initial;&quot;&gt;&amp;nbsp; &amp;nbsp; &amp;nbsp; &quot;identifiedBy&quot;: [&lt;br&gt;&lt;/span&gt;&lt;span style=&quot;font-family: &amp;quot;Courier New&amp;quot;; background-color: initial;&quot;&gt;&amp;nbsp; &amp;nbsp; &amp;nbsp; &amp;nbsp; {&quot;type&quot;: &quot;EmailAddress&quot;, &quot;email&quot;: &quot;willbar@microsoft.com&quot;},&lt;br&gt;&lt;/span&gt;&lt;span style=&quot;font-family: &amp;quot;Courier New&amp;quot;; background-color: initial;&quot;&gt;&amp;nbsp; &amp;nbsp; &amp;nbsp; &amp;nbsp; {&quot;type&quot;: &quot;Account&quot;, &quot;authority&quot;: &quot;github.com&quot;, &quot;locator&quot;: &quot;iamwillbar&quot;}&lt;br&gt;&lt;/span&gt;&lt;span style=&quot;font-family: &amp;quot;Courier New&amp;quot;; background-color: initial;&quot;&gt;&amp;nbsp; &amp;nbsp; &amp;nbsp; ]&lt;br&gt;&lt;/span&gt;&lt;span style=&quot;background-color: initial;&quot;&gt;&lt;font face=&quot;Courier New&quot;&gt;&amp;nbsp; &amp;nbsp; },&lt;br&gt;&lt;/font&gt;&lt;/span&gt;&lt;span style=&quot;background-color: initial;&quot;&gt;&lt;font face=&quot;Courier New&quot;&gt;&amp;nbsp; &amp;nbsp;&amp;nbsp;&lt;/font&gt;&lt;/span&gt;&lt;span style=&quot;font-family: &amp;quot;courier new&amp;quot;; background-color: initial;&quot;&gt;{&lt;br&gt;&lt;/span&gt;&lt;span style=&quot;font-family: &amp;quot;courier new&amp;quot;; background-color: initial;&quot;&gt;&amp;nbsp; &amp;nbsp; &amp;nbsp; &quot;@type&quot;: &quot;Package&quot;,&lt;br&gt;&lt;/span&gt;&lt;span style=&quot;font-family: &amp;quot;courier new&amp;quot;; background-color: initial;&quot;&gt;&amp;nbsp; &amp;nbsp; &amp;nbsp; &quot;@id&quot;: &quot;urn:spdx.dev:spdx-tools-3.0.1&quot;,&lt;br&gt;&lt;/span&gt;&lt;span style=&quot;font-family: &amp;quot;courier new&amp;quot;; background-color: initial;&quot;&gt;&amp;nbsp; &amp;nbsp; &amp;nbsp; &quot;packagePurpose&quot;: &quot;APPLICATION&quot;,&lt;br&gt;&lt;/span&gt;&lt;span style=&quot;font-family: &amp;quot;courier new&amp;quot;; background-color: initial;&quot;&gt;&amp;nbsp; &amp;nbsp; &amp;nbsp; &quot;downloadLocation&quot;: &quot;https://spdx.dev/downlods/spdx-tools-3.0.1.tgz&quot;,&lt;br&gt;&lt;/span&gt;&lt;span style=&quot;font-family: &amp;quot;courier new&amp;quot;; background-color: initial;&quot;&gt;&amp;nbsp; &amp;nbsp; &amp;nbsp; &quot;homePage&quot;: &quot;https://spdx.dev/tools/3.0&quot;,&lt;br&gt;&lt;/span&gt;&lt;span style=&quot;font-family: &amp;quot;courier new&amp;quot;; background-color: initial;&quot;&gt;&amp;nbsp; &amp;nbsp; &amp;nbsp; &quot;originator&quot;: [&quot;urn:spdx.dev:project&quot;],&lt;br&gt;&lt;/span&gt;&lt;span style=&quot;font-family: &amp;quot;courier new&amp;quot;; background-color: initial;&quot;&gt;&amp;nbsp; &amp;nbsp; &amp;nbsp; &quot;identifiedBy&quot;: [&lt;br&gt;&lt;/span&gt;&lt;span style=&quot;font-family: &amp;quot;courier new&amp;quot;; background-color: initial;&quot;&gt;&amp;nbsp; &amp;nbsp; &amp;nbsp; &amp;nbsp; {&quot;type&quot;: &quot;ExternalReference&quot;, &quot;externalReferenceType&quot;: &quot;purl&quot;, &quot;locator&quot;: &quot;&quot;},&lt;br&gt;&lt;/span&gt;&lt;span style=&quot;font-family: &amp;quot;courier new&amp;quot;; background-color: initial;&quot;&gt;&amp;nbsp; &amp;nbsp; &amp;nbsp; &amp;nbsp; {&quot;type&quot;: &quot;ExternalReference&quot;, &quot;externalReferenceType&quot;: &quot;cpe22&quot;, &quot;locator&quot;: &quot;&quot;}&lt;br&gt;&lt;/span&gt;&lt;span style=&quot;font-family: &amp;quot;courier new&amp;quot;; background-color: initial;&quot;&gt;&amp;nbsp; &amp;nbsp; &amp;nbsp; ],&lt;br&gt;&lt;/span&gt;&lt;span style=&quot;font-family: &amp;quot;courier new&amp;quot;; background-color: initial;&quot;&gt;&amp;nbsp; &amp;nbsp; &amp;nbsp; &quot;verifiedUsing&quot;: [&lt;br&gt;&lt;/span&gt;&lt;span style=&quot;font-family: &amp;quot;courier new&amp;quot;; background-color: initial;&quot;&gt;&amp;nbsp; &amp;nbsp; &amp;nbsp; &amp;nbsp; {&quot;type&quot;: &quot;Hash&quot;, &quot;hashAlgorithm&quot;: &quot;SHA256&quot;, &quot;hashValue&quot;: &quot;...&quot;}&lt;br&gt;&lt;/span&gt;&lt;span style=&quot;background-color: initial;&quot;&gt;&lt;font face=&quot;courier new&quot;&gt;&amp;nbsp; &amp;nbsp; &amp;nbsp; ]&lt;br&gt;&lt;/font&gt;&lt;/span&gt;&lt;span style=&quot;background-color: initial;&quot;&gt;&lt;font face=&quot;courier new&quot;&gt;&amp;nbsp; &amp;nbsp;&amp;nbsp;&lt;/font&gt;&lt;/span&gt;&lt;span style=&quot;background-color: initial;&quot;&gt;&lt;font face=&quot;Courier New&quot;&gt;}&lt;br&gt;&lt;/font&gt;&lt;/span&gt;&lt;span style=&quot;background-color: initial;&quot;&gt;&lt;font face=&quot;Courier New&quot;&gt;&amp;nbsp;&amp;nbsp;&lt;/font&gt;&lt;/span&gt;&lt;span style=&quot;font-family: &amp;quot;courier new&amp;quot;; background-color: initial;&quot;&gt;]&lt;br&gt;&lt;/span&gt;&lt;span style=&quot;font-family: &amp;quot;courier new&amp;quot;; background-color: initial;&quot;&gt;}&lt;/span&gt;&lt;/p&gt;" style="text;html=1;strokeColor=default;fillColor=none;spacing=5;spacingTop=-20;whiteSpace=wrap;overflow=hidden;rounded=0;" parent="lbw5UqFOsXxO_sbxoh2b-1" vertex="1">
          <mxGeometry x="400" y="130" width="750" height="700" as="geometry" />
        </mxCell>
        <mxCell id="20PECo7pVLIk0wNA2zsq-14" style="edgeStyle=orthogonalEdgeStyle;rounded=0;orthogonalLoop=1;jettySize=auto;html=1;endArrow=block;endFill=0;" parent="lbw5UqFOsXxO_sbxoh2b-1" source="20PECo7pVLIk0wNA2zsq-9" target="lbw5UqFOsXxO_sbxoh2b-71" edge="1">
          <mxGeometry relative="1" as="geometry">
            <Array as="points">
              <mxPoint x="470" y="-604" />
              <mxPoint x="470" y="-604" />
            </Array>
          </mxGeometry>
        </mxCell>
        <mxCell id="20PECo7pVLIk0wNA2zsq-9" value="Identity" style="swimlane;fontStyle=3;childLayout=stackLayout;horizontal=1;startSize=26;fillColor=none;horizontalStack=0;resizeParent=1;resizeParentMax=0;resizeLast=0;collapsible=1;marginBottom=0;" parent="lbw5UqFOsXxO_sbxoh2b-1" vertex="1">
          <mxGeometry x="140" y="-625" width="140" height="52" as="geometry" />
        </mxCell>
        <mxCell id="2s-bnx9j1tC9v176qzNB-37" style="edgeStyle=orthogonalEdgeStyle;rounded=0;orthogonalLoop=1;jettySize=auto;html=1;endArrow=block;endFill=0;" parent="lbw5UqFOsXxO_sbxoh2b-1" source="20PECo7pVLIk0wNA2zsq-10" target="20PECo7pVLIk0wNA2zsq-9" edge="1">
          <mxGeometry relative="1" as="geometry">
            <Array as="points">
              <mxPoint x="90" y="-550" />
              <mxPoint x="210" y="-550" />
            </Array>
          </mxGeometry>
        </mxCell>
        <mxCell id="20PECo7pVLIk0wNA2zsq-10" value="Person" style="swimlane;fontStyle=1;childLayout=stackLayout;horizontal=1;startSize=26;fillColor=none;horizontalStack=0;resizeParent=1;resizeParentMax=0;resizeLast=0;collapsible=1;marginBottom=0;" parent="lbw5UqFOsXxO_sbxoh2b-1" vertex="1">
          <mxGeometry x="40" y="-525" width="100" height="52" as="geometry" />
        </mxCell>
        <mxCell id="2s-bnx9j1tC9v176qzNB-38" style="edgeStyle=orthogonalEdgeStyle;rounded=0;orthogonalLoop=1;jettySize=auto;html=1;endArrow=block;endFill=0;" parent="lbw5UqFOsXxO_sbxoh2b-1" source="20PECo7pVLIk0wNA2zsq-11" target="20PECo7pVLIk0wNA2zsq-9" edge="1">
          <mxGeometry relative="1" as="geometry" />
        </mxCell>
        <mxCell id="20PECo7pVLIk0wNA2zsq-11" value="Organization" style="swimlane;fontStyle=1;childLayout=stackLayout;horizontal=1;startSize=26;fillColor=none;horizontalStack=0;resizeParent=1;resizeParentMax=0;resizeLast=0;collapsible=1;marginBottom=0;" parent="lbw5UqFOsXxO_sbxoh2b-1" vertex="1">
          <mxGeometry x="160" y="-525" width="100" height="52" as="geometry" />
        </mxCell>
        <mxCell id="2s-bnx9j1tC9v176qzNB-1" value="Legend" style="align=left;fontSize=16;fontStyle=1;strokeColor=none;fillColor=none;fontColor=#4D4D4D;spacingTop=-8;resizable=0;" parent="lbw5UqFOsXxO_sbxoh2b-1" vertex="1">
          <mxGeometry x="1870" y="-830" width="180" height="30" as="geometry" />
        </mxCell>
        <mxCell id="2s-bnx9j1tC9v176qzNB-2" value="" style="shape=table;html=1;whiteSpace=wrap;startSize=0;container=1;collapsible=0;childLayout=tableLayout;fillColor=none;align=left;spacingLeft=10;strokeColor=none;rounded=1;arcSize=11;fontColor=#FFFFFF;resizable=0;points=[[0.25,0,0],[0.5,0,0],[0.75,0,0],[1,0.25,0],[1,0.5,0],[1,0.75,0],[0.75,1,0],[0.5,1,0],[0.25,1,0],[0,0.75,0],[0,0.5,0],[0,0.25,0]];" parent="lbw5UqFOsXxO_sbxoh2b-1" vertex="1">
          <mxGeometry x="1860" y="-800" width="180" height="80" as="geometry" />
        </mxCell>
        <mxCell id="2s-bnx9j1tC9v176qzNB-3" value="&lt;i style=&quot;&quot;&gt;&lt;b&gt;Italics &lt;/b&gt;- &lt;/i&gt;abstract, you must use a subclass" style="shape=partialRectangle;html=1;whiteSpace=wrap;connectable=0;top=0;left=0;bottom=0;right=0;overflow=hidden;pointerEvents=1;align=left;spacingLeft=10;" parent="2s-bnx9j1tC9v176qzNB-2" vertex="1">
          <mxGeometry width="180" height="30" as="geometry" />
        </mxCell>
        <mxCell id="2s-bnx9j1tC9v176qzNB-10" value="&lt;u style=&quot;font-weight: bold;&quot;&gt;Underscore&lt;/u&gt;&lt;i style=&quot;&quot;&gt;&lt;b&gt;&amp;nbsp;&lt;/b&gt;- &lt;/i&gt;value type/struct semantics, equality determined by comparing values" style="shape=partialRectangle;html=1;whiteSpace=wrap;connectable=0;top=0;left=0;bottom=0;right=0;overflow=hidden;pointerEvents=1;align=left;spacingLeft=10;" parent="2s-bnx9j1tC9v176qzNB-2" vertex="1">
          <mxGeometry y="30" width="180" height="50" as="geometry" />
        </mxCell>
        <mxCell id="2s-bnx9j1tC9v176qzNB-16" value="" style="group" parent="lbw5UqFOsXxO_sbxoh2b-1" vertex="1" connectable="0">
          <mxGeometry x="210" y="-50" width="180" height="170" as="geometry" />
        </mxCell>
        <mxCell id="2s-bnx9j1tC9v176qzNB-17" value="profile Security" style="shape=umlFrame;whiteSpace=wrap;html=1;width=100;height=30;" parent="2s-bnx9j1tC9v176qzNB-16" vertex="1">
          <mxGeometry width="180" height="170" as="geometry" />
        </mxCell>
        <mxCell id="2s-bnx9j1tC9v176qzNB-18" value="Defects WG" style="text;strokeColor=none;fillColor=none;html=1;fontSize=24;fontStyle=1;verticalAlign=middle;align=center;" parent="2s-bnx9j1tC9v176qzNB-16" vertex="1">
          <mxGeometry x="76.95652173913042" y="69.7" width="26.086956521739133" height="34" as="geometry" />
        </mxCell>
        <mxCell id="2s-bnx9j1tC9v176qzNB-19" value="" style="group" parent="lbw5UqFOsXxO_sbxoh2b-1" vertex="1" connectable="0">
          <mxGeometry x="400" y="-50" width="180" height="170" as="geometry" />
        </mxCell>
        <mxCell id="2s-bnx9j1tC9v176qzNB-20" value="profile Build" style="shape=umlFrame;whiteSpace=wrap;html=1;width=100;height=30;" parent="2s-bnx9j1tC9v176qzNB-19" vertex="1">
          <mxGeometry width="180" height="170" as="geometry" />
        </mxCell>
        <mxCell id="2s-bnx9j1tC9v176qzNB-21" value="Build WG" style="text;strokeColor=none;fillColor=none;html=1;fontSize=24;fontStyle=1;verticalAlign=middle;align=center;" parent="2s-bnx9j1tC9v176qzNB-19" vertex="1">
          <mxGeometry x="76.95652173913042" y="69.7" width="26.086956521739133" height="34" as="geometry" />
        </mxCell>
        <mxCell id="2s-bnx9j1tC9v176qzNB-22" value="" style="group" parent="lbw5UqFOsXxO_sbxoh2b-1" vertex="1" connectable="0">
          <mxGeometry x="590" y="-50" width="180" height="170" as="geometry" />
        </mxCell>
        <mxCell id="2s-bnx9j1tC9v176qzNB-23" value="profile Usage" style="shape=umlFrame;whiteSpace=wrap;html=1;width=100;height=30;" parent="2s-bnx9j1tC9v176qzNB-22" vertex="1">
          <mxGeometry width="180" height="170" as="geometry" />
        </mxCell>
        <mxCell id="2s-bnx9j1tC9v176qzNB-24" value="Usage WG" style="text;strokeColor=none;fillColor=none;html=1;fontSize=24;fontStyle=1;verticalAlign=middle;align=center;" parent="2s-bnx9j1tC9v176qzNB-22" vertex="1">
          <mxGeometry x="76.95652173913042" y="69.7" width="26.086956521739133" height="34" as="geometry" />
        </mxCell>
        <mxCell id="2s-bnx9j1tC9v176qzNB-27" value="" style="group" parent="lbw5UqFOsXxO_sbxoh2b-1" vertex="1" connectable="0">
          <mxGeometry x="780" y="-50" width="180" height="170" as="geometry" />
        </mxCell>
        <mxCell id="2s-bnx9j1tC9v176qzNB-28" value="profile AI+Data" style="shape=umlFrame;whiteSpace=wrap;html=1;width=100;height=30;" parent="2s-bnx9j1tC9v176qzNB-27" vertex="1">
          <mxGeometry width="180" height="170" as="geometry" />
        </mxCell>
        <mxCell id="2s-bnx9j1tC9v176qzNB-29" value="AI WG" style="text;strokeColor=none;fillColor=none;html=1;fontSize=24;fontStyle=1;verticalAlign=middle;align=center;" parent="2s-bnx9j1tC9v176qzNB-27" vertex="1">
          <mxGeometry x="76.95652173913042" y="69.7" width="26.086956521739133" height="34" as="geometry" />
        </mxCell>
        <mxCell id="2s-bnx9j1tC9v176qzNB-36" style="edgeStyle=orthogonalEdgeStyle;rounded=0;orthogonalLoop=1;jettySize=auto;html=1;endArrow=block;endFill=0;exitX=0.5;exitY=0;exitDx=0;exitDy=0;" parent="lbw5UqFOsXxO_sbxoh2b-1" source="2s-bnx9j1tC9v176qzNB-35" target="20PECo7pVLIk0wNA2zsq-9" edge="1">
          <mxGeometry relative="1" as="geometry">
            <Array as="points">
              <mxPoint x="330" y="-550" />
              <mxPoint x="210" y="-550" />
            </Array>
          </mxGeometry>
        </mxCell>
        <mxCell id="2s-bnx9j1tC9v176qzNB-35" value="Tool" style="swimlane;fontStyle=1;childLayout=stackLayout;horizontal=1;startSize=26;fillColor=none;horizontalStack=0;resizeParent=1;resizeParentMax=0;resizeLast=0;collapsible=1;marginBottom=0;" parent="lbw5UqFOsXxO_sbxoh2b-1" vertex="1">
          <mxGeometry x="280" y="-525" width="100" height="52" as="geometry" />
        </mxCell>
        <mxCell id="2s-bnx9j1tC9v176qzNB-40" value="" style="group" parent="lbw5UqFOsXxO_sbxoh2b-1" vertex="1" connectable="0">
          <mxGeometry x="970" y="-50" width="180" height="170" as="geometry" />
        </mxCell>
        <mxCell id="2s-bnx9j1tC9v176qzNB-41" value="profile Service" style="shape=umlFrame;whiteSpace=wrap;html=1;width=100;height=30;" parent="2s-bnx9j1tC9v176qzNB-40" vertex="1">
          <mxGeometry width="180" height="170" as="geometry" />
        </mxCell>
        <mxCell id="2s-bnx9j1tC9v176qzNB-42" value="TBD" style="text;strokeColor=none;fillColor=none;html=1;fontSize=24;fontStyle=1;verticalAlign=middle;align=center;" parent="2s-bnx9j1tC9v176qzNB-40" vertex="1">
          <mxGeometry x="76.95652173913042" y="69.7" width="26.086956521739133" height="34" as="geometry" />
        </mxCell>
        <mxCell id="J2p73exiqBk-JbLpaiTC-0" value="Core Data Types" style="align=left;fontSize=16;fontStyle=1;strokeColor=none;fillColor=none;fontColor=#4D4D4D;spacingTop=-8;resizable=0;" parent="lbw5UqFOsXxO_sbxoh2b-1" vertex="1">
          <mxGeometry x="1875" y="-703" width="180" height="30" as="geometry" />
        </mxCell>
        <object label="IdentifierRange/Query/Search" description="specified set of attributes (3.2.5) assigned to an entity (3.1.91) for the purpose of identification (3.1.117)" description_source="ISO 22300:2021" id="HIxk6s3NbhlS_bf0KkwK-6">
          <mxCell style="swimlane;fontStyle=7;childLayout=stackLayout;horizontal=1;startSize=26;fillColor=none;horizontalStack=0;resizeParent=1;resizeParentMax=0;resizeLast=0;collapsible=1;marginBottom=0;" parent="lbw5UqFOsXxO_sbxoh2b-1" vertex="1">
            <mxGeometry x="1600" y="-460" width="160" height="52" as="geometry" />
          </mxCell>
        </object>
        <mxCell id="jUCqu7r1JRTQMiQOWCPR-0" value="&lt;div&gt;&lt;br&gt;&lt;/div&gt;&lt;div&gt;&lt;br&gt;&lt;/div&gt;" style="endArrow=block;endSize=6;endFill=0;html=1;rounded=0;exitX=-0.004;exitY=0.103;exitDx=0;exitDy=0;exitPerimeter=0;" parent="lbw5UqFOsXxO_sbxoh2b-1" edge="1">
          <mxGeometry width="160" relative="1" as="geometry">
            <mxPoint x="868.9160000000002" y="-560.9659999999999" as="sourcePoint" />
            <mxPoint x="660" y="-561" as="targetPoint" />
          </mxGeometry>
        </mxCell>
        <mxCell id="jUCqu7r1JRTQMiQOWCPR-3" style="edgeStyle=orthogonalEdgeStyle;rounded=0;orthogonalLoop=1;jettySize=auto;html=1;endArrow=block;endFill=0;" parent="lbw5UqFOsXxO_sbxoh2b-1" source="jUCqu7r1JRTQMiQOWCPR-1" target="s9GtI_vweYOVL9K8k0TA-0" edge="1">
          <mxGeometry relative="1" as="geometry">
            <Array as="points">
              <mxPoint x="1032" y="-460" />
              <mxPoint x="1032" y="-460" />
            </Array>
          </mxGeometry>
        </mxCell>
        <mxCell id="jUCqu7r1JRTQMiQOWCPR-1" value="Bundle" style="swimlane;fontStyle=1;childLayout=stackLayout;horizontal=1;startSize=26;fillColor=#d5e8d4;horizontalStack=0;resizeParent=1;resizeParentMax=0;resizeLast=0;collapsible=1;marginBottom=0;strokeColor=#82b366;" parent="lbw5UqFOsXxO_sbxoh2b-1" vertex="1">
          <mxGeometry x="962" y="-429" width="140" height="52" as="geometry" />
        </mxCell>
        <mxCell id="jUCqu7r1JRTQMiQOWCPR-2" value="+ context: String[0..1]" style="text;strokeColor=none;fillColor=none;align=left;verticalAlign=top;spacingLeft=4;spacingRight=4;overflow=hidden;rotatable=0;points=[[0,0.5],[1,0.5]];portConstraint=eastwest;" parent="jUCqu7r1JRTQMiQOWCPR-1" vertex="1">
          <mxGeometry y="26" width="140" height="26" as="geometry" />
        </mxCell>
        <mxCell id="jUCqu7r1JRTQMiQOWCPR-7" style="edgeStyle=orthogonalEdgeStyle;rounded=0;orthogonalLoop=1;jettySize=auto;html=1;endArrow=block;endFill=0;" parent="lbw5UqFOsXxO_sbxoh2b-1" source="jUCqu7r1JRTQMiQOWCPR-5" target="jUCqu7r1JRTQMiQOWCPR-1" edge="1">
          <mxGeometry relative="1" as="geometry">
            <Array as="points">
              <mxPoint x="871" y="-403" />
            </Array>
          </mxGeometry>
        </mxCell>
        <mxCell id="jUCqu7r1JRTQMiQOWCPR-5" value="SpdxDocument" style="swimlane;fontStyle=1;childLayout=stackLayout;horizontal=1;startSize=26;fillColor=#d5e8d4;horizontalStack=0;resizeParent=1;resizeParentMax=0;resizeLast=0;collapsible=1;marginBottom=0;strokeColor=#82b366;" parent="lbw5UqFOsXxO_sbxoh2b-1" vertex="1">
          <mxGeometry x="740" y="-425" width="140" height="52" as="geometry" />
        </mxCell>
        <mxCell id="g6NRQURgCGisHfTkYt4T-0" value="+ name: String[1]" style="text;strokeColor=none;fillColor=none;align=left;verticalAlign=top;spacingLeft=4;spacingRight=4;overflow=hidden;rotatable=0;points=[[0,0.5],[1,0.5]];portConstraint=eastwest;" vertex="1" parent="jUCqu7r1JRTQMiQOWCPR-5">
          <mxGeometry y="26" width="140" height="26" as="geometry" />
        </mxCell>
      </root>
    </mxGraphModel>
  </diagram>
</mxfile>
